G04 #@! TF.FileFunction,Legend,Top*
%FSLAX46Y46*%
G04 Gerber Fmt 4.6, Leading zero omitted, Abs format (unit mm)*
G04 Created by KiCad (PCBNEW 4.0.7) date 08/09/18 14:36:55*
%MOMM*%
%LPD*%
G01*
G04 APERTURE LIST*
%ADD10C,0.100000*%
%ADD11C,0.300000*%
%ADD12C,0.200000*%
%ADD13C,0.150000*%
%ADD14C,0.254000*%
G04 APERTURE END LIST*
D10*
D11*
X166021430Y-101578571D02*
X166021430Y-100078571D01*
X166378573Y-100078571D01*
X166592858Y-100150000D01*
X166735716Y-100292857D01*
X166807144Y-100435714D01*
X166878573Y-100721429D01*
X166878573Y-100935714D01*
X166807144Y-101221429D01*
X166735716Y-101364286D01*
X166592858Y-101507143D01*
X166378573Y-101578571D01*
X166021430Y-101578571D01*
X167521430Y-101578571D02*
X167521430Y-100078571D01*
X168092858Y-100078571D01*
X168235716Y-100150000D01*
X168307144Y-100221429D01*
X168378573Y-100364286D01*
X168378573Y-100578571D01*
X168307144Y-100721429D01*
X168235716Y-100792857D01*
X168092858Y-100864286D01*
X167521430Y-100864286D01*
X168950001Y-100221429D02*
X169021430Y-100150000D01*
X169164287Y-100078571D01*
X169521430Y-100078571D01*
X169664287Y-100150000D01*
X169735716Y-100221429D01*
X169807144Y-100364286D01*
X169807144Y-100507143D01*
X169735716Y-100721429D01*
X168878573Y-101578571D01*
X169807144Y-101578571D01*
X171021429Y-101507143D02*
X170878572Y-101578571D01*
X170592858Y-101578571D01*
X170450001Y-101507143D01*
X170378572Y-101364286D01*
X170378572Y-100792857D01*
X170450001Y-100650000D01*
X170592858Y-100578571D01*
X170878572Y-100578571D01*
X171021429Y-100650000D01*
X171092858Y-100792857D01*
X171092858Y-100935714D01*
X170378572Y-101078571D01*
X171735715Y-101578571D02*
X171735715Y-100078571D01*
X172092858Y-100078571D01*
X172307143Y-100150000D01*
X172450001Y-100292857D01*
X172521429Y-100435714D01*
X172592858Y-100721429D01*
X172592858Y-100935714D01*
X172521429Y-101221429D01*
X172450001Y-101364286D01*
X172307143Y-101507143D01*
X172092858Y-101578571D01*
X171735715Y-101578571D01*
X173235715Y-101578571D02*
X173235715Y-100078571D01*
X173807143Y-100078571D01*
X173950001Y-100150000D01*
X174021429Y-100221429D01*
X174092858Y-100364286D01*
X174092858Y-100578571D01*
X174021429Y-100721429D01*
X173950001Y-100792857D01*
X173807143Y-100864286D01*
X173235715Y-100864286D01*
X175878572Y-101578571D02*
X175878572Y-100578571D01*
X175878572Y-100864286D02*
X175950000Y-100721429D01*
X176021429Y-100650000D01*
X176164286Y-100578571D01*
X176307143Y-100578571D01*
X177378571Y-101507143D02*
X177235714Y-101578571D01*
X176950000Y-101578571D01*
X176807143Y-101507143D01*
X176735714Y-101364286D01*
X176735714Y-100792857D01*
X176807143Y-100650000D01*
X176950000Y-100578571D01*
X177235714Y-100578571D01*
X177378571Y-100650000D01*
X177450000Y-100792857D01*
X177450000Y-100935714D01*
X176735714Y-101078571D01*
X177950000Y-100578571D02*
X178307143Y-101578571D01*
X178664285Y-100578571D01*
X179521428Y-100078571D02*
X179664285Y-100078571D01*
X179807142Y-100150000D01*
X179878571Y-100221429D01*
X179950000Y-100364286D01*
X180021428Y-100650000D01*
X180021428Y-101007143D01*
X179950000Y-101292857D01*
X179878571Y-101435714D01*
X179807142Y-101507143D01*
X179664285Y-101578571D01*
X179521428Y-101578571D01*
X179378571Y-101507143D01*
X179307142Y-101435714D01*
X179235714Y-101292857D01*
X179164285Y-101007143D01*
X179164285Y-100650000D01*
X179235714Y-100364286D01*
X179307142Y-100221429D01*
X179378571Y-100150000D01*
X179521428Y-100078571D01*
X181449999Y-101578571D02*
X180592856Y-101578571D01*
X181021428Y-101578571D02*
X181021428Y-100078571D01*
X180878571Y-100292857D01*
X180735713Y-100435714D01*
X180592856Y-100507143D01*
X182378571Y-87878570D02*
X180878571Y-87878570D01*
X181950000Y-87378570D01*
X180878571Y-86878570D01*
X182378571Y-86878570D01*
X182378571Y-85949998D02*
X182307143Y-86092856D01*
X182235714Y-86164284D01*
X182092857Y-86235713D01*
X181664286Y-86235713D01*
X181521429Y-86164284D01*
X181450000Y-86092856D01*
X181378571Y-85949998D01*
X181378571Y-85735713D01*
X181450000Y-85592856D01*
X181521429Y-85521427D01*
X181664286Y-85449998D01*
X182092857Y-85449998D01*
X182235714Y-85521427D01*
X182307143Y-85592856D01*
X182378571Y-85735713D01*
X182378571Y-85949998D01*
X182378571Y-84592855D02*
X182307143Y-84735713D01*
X182164286Y-84807141D01*
X180878571Y-84807141D01*
X182307143Y-83449999D02*
X182378571Y-83592856D01*
X182378571Y-83878570D01*
X182307143Y-84021427D01*
X182164286Y-84092856D01*
X181592857Y-84092856D01*
X181450000Y-84021427D01*
X181378571Y-83878570D01*
X181378571Y-83592856D01*
X181450000Y-83449999D01*
X181592857Y-83378570D01*
X181735714Y-83378570D01*
X181878571Y-84092856D01*
X182378571Y-82878570D02*
X181378571Y-82092856D01*
X181378571Y-82878570D02*
X182378571Y-82092856D01*
X180878571Y-79664284D02*
X180878571Y-80378570D01*
X181592857Y-80449999D01*
X181521429Y-80378570D01*
X181450000Y-80235713D01*
X181450000Y-79878570D01*
X181521429Y-79735713D01*
X181592857Y-79664284D01*
X181735714Y-79592856D01*
X182092857Y-79592856D01*
X182235714Y-79664284D01*
X182307143Y-79735713D01*
X182378571Y-79878570D01*
X182378571Y-80235713D01*
X182307143Y-80378570D01*
X182235714Y-80449999D01*
X180878571Y-78664285D02*
X180878571Y-78521428D01*
X180950000Y-78378571D01*
X181021429Y-78307142D01*
X181164286Y-78235713D01*
X181450000Y-78164285D01*
X181807143Y-78164285D01*
X182092857Y-78235713D01*
X182235714Y-78307142D01*
X182307143Y-78378571D01*
X182378571Y-78521428D01*
X182378571Y-78664285D01*
X182307143Y-78807142D01*
X182235714Y-78878571D01*
X182092857Y-78949999D01*
X181807143Y-79021428D01*
X181450000Y-79021428D01*
X181164286Y-78949999D01*
X181021429Y-78878571D01*
X180950000Y-78807142D01*
X180878571Y-78664285D01*
X180878571Y-76807142D02*
X180878571Y-77521428D01*
X181592857Y-77592857D01*
X181521429Y-77521428D01*
X181450000Y-77378571D01*
X181450000Y-77021428D01*
X181521429Y-76878571D01*
X181592857Y-76807142D01*
X181735714Y-76735714D01*
X182092857Y-76735714D01*
X182235714Y-76807142D01*
X182307143Y-76878571D01*
X182378571Y-77021428D01*
X182378571Y-77378571D01*
X182307143Y-77521428D01*
X182235714Y-77592857D01*
X182378571Y-75307143D02*
X182378571Y-76164286D01*
X182378571Y-75735714D02*
X180878571Y-75735714D01*
X181092857Y-75878571D01*
X181235714Y-76021429D01*
X181307143Y-76164286D01*
X182378571Y-73878572D02*
X182378571Y-74735715D01*
X182378571Y-74307143D02*
X180878571Y-74307143D01*
X181092857Y-74450000D01*
X181235714Y-74592858D01*
X181307143Y-74735715D01*
X180878571Y-72950001D02*
X180878571Y-72807144D01*
X180950000Y-72664287D01*
X181021429Y-72592858D01*
X181164286Y-72521429D01*
X181450000Y-72450001D01*
X181807143Y-72450001D01*
X182092857Y-72521429D01*
X182235714Y-72592858D01*
X182307143Y-72664287D01*
X182378571Y-72807144D01*
X182378571Y-72950001D01*
X182307143Y-73092858D01*
X182235714Y-73164287D01*
X182092857Y-73235715D01*
X181807143Y-73307144D01*
X181450000Y-73307144D01*
X181164286Y-73235715D01*
X181021429Y-73164287D01*
X180950000Y-73092858D01*
X180878571Y-72950001D01*
X160078571Y-96564285D02*
X160078571Y-96278571D01*
X160150000Y-96135713D01*
X160292857Y-95992856D01*
X160578571Y-95921428D01*
X161078571Y-95921428D01*
X161364286Y-95992856D01*
X161507143Y-96135713D01*
X161578571Y-96278571D01*
X161578571Y-96564285D01*
X161507143Y-96707142D01*
X161364286Y-96849999D01*
X161078571Y-96921428D01*
X160578571Y-96921428D01*
X160292857Y-96849999D01*
X160150000Y-96707142D01*
X160078571Y-96564285D01*
X161578571Y-95278570D02*
X160578571Y-95278570D01*
X160721429Y-95278570D02*
X160650000Y-95207142D01*
X160578571Y-95064284D01*
X160578571Y-94849999D01*
X160650000Y-94707142D01*
X160792857Y-94635713D01*
X161578571Y-94635713D01*
X160792857Y-94635713D02*
X160650000Y-94564284D01*
X160578571Y-94421427D01*
X160578571Y-94207142D01*
X160650000Y-94064284D01*
X160792857Y-93992856D01*
X161578571Y-93992856D01*
X161578571Y-93278570D02*
X160578571Y-93278570D01*
X160864286Y-93278570D02*
X160721429Y-93207142D01*
X160650000Y-93135713D01*
X160578571Y-92992856D01*
X160578571Y-92849999D01*
X161578571Y-92135713D02*
X161507143Y-92278571D01*
X161435714Y-92349999D01*
X161292857Y-92421428D01*
X160864286Y-92421428D01*
X160721429Y-92349999D01*
X160650000Y-92278571D01*
X160578571Y-92135713D01*
X160578571Y-91921428D01*
X160650000Y-91778571D01*
X160721429Y-91707142D01*
X160864286Y-91635713D01*
X161292857Y-91635713D01*
X161435714Y-91707142D01*
X161507143Y-91778571D01*
X161578571Y-91921428D01*
X161578571Y-92135713D01*
X160578571Y-90992856D02*
X161578571Y-90992856D01*
X160721429Y-90992856D02*
X160650000Y-90921428D01*
X160578571Y-90778570D01*
X160578571Y-90564285D01*
X160650000Y-90421428D01*
X160792857Y-90349999D01*
X161578571Y-90349999D01*
X160078571Y-88635713D02*
X161578571Y-87635713D01*
X160078571Y-87635713D02*
X161578571Y-88635713D01*
X160792857Y-86564285D02*
X160792857Y-87064285D01*
X161578571Y-87064285D02*
X160078571Y-87064285D01*
X160078571Y-86349999D01*
X160221429Y-85850000D02*
X160150000Y-85778571D01*
X160078571Y-85635714D01*
X160078571Y-85278571D01*
X160150000Y-85135714D01*
X160221429Y-85064285D01*
X160364286Y-84992857D01*
X160507143Y-84992857D01*
X160721429Y-85064285D01*
X161578571Y-85921428D01*
X161578571Y-84992857D01*
X161578571Y-84350000D02*
X160078571Y-84350000D01*
X161150000Y-83850000D01*
X160078571Y-83350000D01*
X161578571Y-83350000D01*
D10*
X152600000Y-98000000D02*
X152600000Y-99550000D01*
X152600000Y-99550000D02*
X155100000Y-99550000D01*
X152600000Y-82000000D02*
X152600000Y-80450000D01*
X152600000Y-80450000D02*
X155100000Y-80450000D01*
X157500000Y-99500000D02*
X157500000Y-80500000D01*
D12*
X151700000Y-97250000D02*
X151700000Y-97250000D01*
X151500000Y-97250000D02*
X151500000Y-97250000D01*
X151500000Y-97250000D02*
G75*
G03X151700000Y-97250000I100000J0D01*
G01*
X151700000Y-97250000D02*
G75*
G03X151500000Y-97250000I-100000J0D01*
G01*
D13*
X166040000Y-79150000D02*
X160960000Y-79150000D01*
X160960000Y-79150000D02*
X160960000Y-41050000D01*
X160960000Y-41050000D02*
X166040000Y-41050000D01*
X166040000Y-41050000D02*
X166040000Y-79150000D01*
X136940000Y-102050000D02*
X131860000Y-102050000D01*
X131860000Y-102050000D02*
X131860000Y-63950000D01*
X131860000Y-63950000D02*
X136940000Y-63950000D01*
X136940000Y-63950000D02*
X136940000Y-102050000D01*
X160020000Y-66548000D02*
X154940000Y-66548000D01*
X154940000Y-66548000D02*
X154940000Y-41148000D01*
X154940000Y-41148000D02*
X160020000Y-41148000D01*
X160020000Y-41148000D02*
X160020000Y-66548000D01*
X148838381Y-53165333D02*
X149552667Y-53165333D01*
X149695524Y-53212953D01*
X149790762Y-53308191D01*
X149838381Y-53451048D01*
X149838381Y-53546286D01*
X149838381Y-52165333D02*
X149838381Y-52736762D01*
X149838381Y-52451048D02*
X148838381Y-52451048D01*
X148981238Y-52546286D01*
X149076476Y-52641524D01*
X149124095Y-52736762D01*
D14*
X155074524Y-90937381D02*
X153804524Y-90937381D01*
X153804524Y-90453572D01*
X153865000Y-90332619D01*
X153925476Y-90272143D01*
X154046429Y-90211667D01*
X154227857Y-90211667D01*
X154348810Y-90272143D01*
X154409286Y-90332619D01*
X154469762Y-90453572D01*
X154469762Y-90937381D01*
X153804524Y-89123095D02*
X153804524Y-89365000D01*
X153865000Y-89485952D01*
X153925476Y-89546429D01*
X154106905Y-89667381D01*
X154348810Y-89727857D01*
X154832619Y-89727857D01*
X154953571Y-89667381D01*
X155014048Y-89606905D01*
X155074524Y-89485952D01*
X155074524Y-89244048D01*
X155014048Y-89123095D01*
X154953571Y-89062619D01*
X154832619Y-89002143D01*
X154530238Y-89002143D01*
X154409286Y-89062619D01*
X154348810Y-89123095D01*
X154288333Y-89244048D01*
X154288333Y-89485952D01*
X154348810Y-89606905D01*
X154409286Y-89667381D01*
X154530238Y-89727857D01*
D13*
X162761905Y-80872381D02*
X162761905Y-79872381D01*
X163142858Y-79872381D01*
X163238096Y-79920000D01*
X163285715Y-79967619D01*
X163333334Y-80062857D01*
X163333334Y-80205714D01*
X163285715Y-80300952D01*
X163238096Y-80348571D01*
X163142858Y-80396190D01*
X162761905Y-80396190D01*
X163666667Y-79872381D02*
X164285715Y-79872381D01*
X163952381Y-80253333D01*
X164095239Y-80253333D01*
X164190477Y-80300952D01*
X164238096Y-80348571D01*
X164285715Y-80443810D01*
X164285715Y-80681905D01*
X164238096Y-80777143D01*
X164190477Y-80824762D01*
X164095239Y-80872381D01*
X163809524Y-80872381D01*
X163714286Y-80824762D01*
X163666667Y-80777143D01*
X133661905Y-103772381D02*
X133661905Y-102772381D01*
X134042858Y-102772381D01*
X134138096Y-102820000D01*
X134185715Y-102867619D01*
X134233334Y-102962857D01*
X134233334Y-103105714D01*
X134185715Y-103200952D01*
X134138096Y-103248571D01*
X134042858Y-103296190D01*
X133661905Y-103296190D01*
X135090477Y-103105714D02*
X135090477Y-103772381D01*
X134852381Y-102724762D02*
X134614286Y-103439048D01*
X135233334Y-103439048D01*
X156741905Y-68270381D02*
X156741905Y-67270381D01*
X157122858Y-67270381D01*
X157218096Y-67318000D01*
X157265715Y-67365619D01*
X157313334Y-67460857D01*
X157313334Y-67603714D01*
X157265715Y-67698952D01*
X157218096Y-67746571D01*
X157122858Y-67794190D01*
X156741905Y-67794190D01*
X157694286Y-67365619D02*
X157741905Y-67318000D01*
X157837143Y-67270381D01*
X158075239Y-67270381D01*
X158170477Y-67318000D01*
X158218096Y-67365619D01*
X158265715Y-67460857D01*
X158265715Y-67556095D01*
X158218096Y-67698952D01*
X157646667Y-68270381D01*
X158265715Y-68270381D01*
X184459381Y-60938095D02*
X183459381Y-60938095D01*
X183459381Y-60557142D01*
X183507000Y-60461904D01*
X183554619Y-60414285D01*
X183649857Y-60366666D01*
X183792714Y-60366666D01*
X183887952Y-60414285D01*
X183935571Y-60461904D01*
X183983190Y-60557142D01*
X183983190Y-60938095D01*
X183459381Y-59461904D02*
X183459381Y-59938095D01*
X183935571Y-59985714D01*
X183887952Y-59938095D01*
X183840333Y-59842857D01*
X183840333Y-59604761D01*
X183887952Y-59509523D01*
X183935571Y-59461904D01*
X184030810Y-59414285D01*
X184268905Y-59414285D01*
X184364143Y-59461904D01*
X184411762Y-59509523D01*
X184459381Y-59604761D01*
X184459381Y-59842857D01*
X184411762Y-59938095D01*
X184364143Y-59985714D01*
M02*
