M48
;DRILL file {KiCad 4.0.7} date 08/09/18 14:36:59
;FORMAT={3:3/ absolute / metric / suppress leading zeros}
FMAT,2
METRIC,TZ
T1C0.700
T2C1.020
T3C1.400
%
G90
G05
M71
T2
X133130Y-65220
X133130Y-67760
X133130Y-70300
X133130Y-72840
X133130Y-75380
X133130Y-77920
X133130Y-80460
X133130Y-83000
X133130Y-85540
X133130Y-88080
X133130Y-90620
X133130Y-93160
X133130Y-95700
X133130Y-98240
X133130Y-100780
X135670Y-65220
X135670Y-67760
X135670Y-70300
X135670Y-72840
X135670Y-75380
X135670Y-77920
X135670Y-80460
X135670Y-83000
X135670Y-85540
X135670Y-88080
X135670Y-90620
X135670Y-93160
X135670Y-95700
X135670Y-98240
X135670Y-100780
X156210Y-42418
X156210Y-44958
X156210Y-47498
X156210Y-50038
X156210Y-52578
X156210Y-55118
X156210Y-57658
X156210Y-60198
X156210Y-62738
X156210Y-65278
X158750Y-42418
X158750Y-44958
X158750Y-47498
X158750Y-50038
X158750Y-52578
X158750Y-55118
X158750Y-57658
X158750Y-60198
X158750Y-62738
X158750Y-65278
X162230Y-42320
X162230Y-44860
X162230Y-47400
X162230Y-49940
X162230Y-52480
X162230Y-55020
X162230Y-57560
X162230Y-60100
X162230Y-62640
X162230Y-65180
X162230Y-67720
X162230Y-70260
X162230Y-72800
X162230Y-75340
X162230Y-77880
X164770Y-42320
X164770Y-44860
X164770Y-47400
X164770Y-49940
X164770Y-52480
X164770Y-55020
X164770Y-57560
X164770Y-60100
X164770Y-62640
X164770Y-65180
X164770Y-67720
X164770Y-70260
X164770Y-72800
X164770Y-75340
X164770Y-77880
T3
X135636Y-52832
T1
X137086Y-44582G85X135986Y-44582
G05
X137086Y-61082G85X135986Y-61082
G05
X144066Y-44582G85X142566Y-44582
G05
X144066Y-61082G85X142566Y-61082
G05
T0
M30
