G04 #@! TF.FileFunction,Legend,Top*
%FSLAX46Y46*%
G04 Gerber Fmt 4.6, Leading zero omitted, Abs format (unit mm)*
G04 Created by KiCad (PCBNEW 4.0.7) date 09/28/18 02:57:55*
%MOMM*%
%LPD*%
G01*
G04 APERTURE LIST*
%ADD10C,0.100000*%
%ADD11C,0.300000*%
%ADD12C,0.200000*%
%ADD13C,0.150000*%
G04 APERTURE END LIST*
D10*
D11*
X152157143Y-111678571D02*
X152157143Y-110178571D01*
X152514286Y-110178571D01*
X152728571Y-110250000D01*
X152871429Y-110392857D01*
X152942857Y-110535714D01*
X153014286Y-110821429D01*
X153014286Y-111035714D01*
X152942857Y-111321429D01*
X152871429Y-111464286D01*
X152728571Y-111607143D01*
X152514286Y-111678571D01*
X152157143Y-111678571D01*
X153657143Y-111678571D02*
X153657143Y-110178571D01*
X154228571Y-110178571D01*
X154371429Y-110250000D01*
X154442857Y-110321429D01*
X154514286Y-110464286D01*
X154514286Y-110678571D01*
X154442857Y-110821429D01*
X154371429Y-110892857D01*
X154228571Y-110964286D01*
X153657143Y-110964286D01*
X165307143Y-88178571D02*
X165307143Y-86678571D01*
X165307143Y-87392857D02*
X166164286Y-87392857D01*
X166164286Y-88178571D02*
X166164286Y-86678571D01*
X166807143Y-88107143D02*
X167021429Y-88178571D01*
X167378572Y-88178571D01*
X167521429Y-88107143D01*
X167592858Y-88035714D01*
X167664286Y-87892857D01*
X167664286Y-87750000D01*
X167592858Y-87607143D01*
X167521429Y-87535714D01*
X167378572Y-87464286D01*
X167092858Y-87392857D01*
X166950000Y-87321429D01*
X166878572Y-87250000D01*
X166807143Y-87107143D01*
X166807143Y-86964286D01*
X166878572Y-86821429D01*
X166950000Y-86750000D01*
X167092858Y-86678571D01*
X167450000Y-86678571D01*
X167664286Y-86750000D01*
X168807143Y-87392857D02*
X169021429Y-87464286D01*
X169092857Y-87535714D01*
X169164286Y-87678571D01*
X169164286Y-87892857D01*
X169092857Y-88035714D01*
X169021429Y-88107143D01*
X168878571Y-88178571D01*
X168307143Y-88178571D01*
X168307143Y-86678571D01*
X168807143Y-86678571D01*
X168950000Y-86750000D01*
X169021429Y-86821429D01*
X169092857Y-86964286D01*
X169092857Y-87107143D01*
X169021429Y-87250000D01*
X168950000Y-87321429D01*
X168807143Y-87392857D01*
X168307143Y-87392857D01*
X131357143Y-100321429D02*
X131428572Y-100250000D01*
X131571429Y-100178571D01*
X131928572Y-100178571D01*
X132071429Y-100250000D01*
X132142858Y-100321429D01*
X132214286Y-100464286D01*
X132214286Y-100607143D01*
X132142858Y-100821429D01*
X131285715Y-101678571D01*
X132214286Y-101678571D01*
X133142857Y-100178571D02*
X133285714Y-100178571D01*
X133428571Y-100250000D01*
X133500000Y-100321429D01*
X133571429Y-100464286D01*
X133642857Y-100750000D01*
X133642857Y-101107143D01*
X133571429Y-101392857D01*
X133500000Y-101535714D01*
X133428571Y-101607143D01*
X133285714Y-101678571D01*
X133142857Y-101678571D01*
X133000000Y-101607143D01*
X132928571Y-101535714D01*
X132857143Y-101392857D01*
X132785714Y-101107143D01*
X132785714Y-100750000D01*
X132857143Y-100464286D01*
X132928571Y-100321429D01*
X133000000Y-100250000D01*
X133142857Y-100178571D01*
X146628572Y-101478571D02*
X145771429Y-101478571D01*
X146200001Y-101478571D02*
X146200001Y-99978571D01*
X146057144Y-100192857D01*
X145914286Y-100335714D01*
X145771429Y-100407143D01*
X157085715Y-92378571D02*
X158014286Y-92378571D01*
X157514286Y-92950000D01*
X157728572Y-92950000D01*
X157871429Y-93021429D01*
X157942858Y-93092857D01*
X158014286Y-93235714D01*
X158014286Y-93592857D01*
X157942858Y-93735714D01*
X157871429Y-93807143D01*
X157728572Y-93878571D01*
X157300000Y-93878571D01*
X157157143Y-93807143D01*
X157085715Y-93735714D01*
X158942857Y-92378571D02*
X159085714Y-92378571D01*
X159228571Y-92450000D01*
X159300000Y-92521429D01*
X159371429Y-92664286D01*
X159442857Y-92950000D01*
X159442857Y-93307143D01*
X159371429Y-93592857D01*
X159300000Y-93735714D01*
X159228571Y-93807143D01*
X159085714Y-93878571D01*
X158942857Y-93878571D01*
X158800000Y-93807143D01*
X158728571Y-93735714D01*
X158657143Y-93592857D01*
X158585714Y-93307143D01*
X158585714Y-92950000D01*
X158657143Y-92664286D01*
X158728571Y-92521429D01*
X158800000Y-92450000D01*
X158942857Y-92378571D01*
X140028572Y-93678571D02*
X139171429Y-93678571D01*
X139600001Y-93678571D02*
X139600001Y-92178571D01*
X139457144Y-92392857D01*
X139314286Y-92535714D01*
X139171429Y-92607143D01*
D12*
X171100000Y-85900000D02*
X171200000Y-85900000D01*
X171100000Y-89000000D02*
X171100000Y-85900000D01*
X188400000Y-89000000D02*
X171100000Y-89000000D01*
X188400000Y-85900000D02*
X188400000Y-89000000D01*
X171200000Y-85900000D02*
X188400000Y-85900000D01*
D11*
X172321430Y-88278571D02*
X172321430Y-86778571D01*
X172678573Y-86778571D01*
X172892858Y-86850000D01*
X173035716Y-86992857D01*
X173107144Y-87135714D01*
X173178573Y-87421429D01*
X173178573Y-87635714D01*
X173107144Y-87921429D01*
X173035716Y-88064286D01*
X172892858Y-88207143D01*
X172678573Y-88278571D01*
X172321430Y-88278571D01*
X173821430Y-88278571D02*
X173821430Y-86778571D01*
X174392858Y-86778571D01*
X174535716Y-86850000D01*
X174607144Y-86921429D01*
X174678573Y-87064286D01*
X174678573Y-87278571D01*
X174607144Y-87421429D01*
X174535716Y-87492857D01*
X174392858Y-87564286D01*
X173821430Y-87564286D01*
X175250001Y-86921429D02*
X175321430Y-86850000D01*
X175464287Y-86778571D01*
X175821430Y-86778571D01*
X175964287Y-86850000D01*
X176035716Y-86921429D01*
X176107144Y-87064286D01*
X176107144Y-87207143D01*
X176035716Y-87421429D01*
X175178573Y-88278571D01*
X176107144Y-88278571D01*
X177321429Y-88207143D02*
X177178572Y-88278571D01*
X176892858Y-88278571D01*
X176750001Y-88207143D01*
X176678572Y-88064286D01*
X176678572Y-87492857D01*
X176750001Y-87350000D01*
X176892858Y-87278571D01*
X177178572Y-87278571D01*
X177321429Y-87350000D01*
X177392858Y-87492857D01*
X177392858Y-87635714D01*
X176678572Y-87778571D01*
X178035715Y-88278571D02*
X178035715Y-86778571D01*
X178392858Y-86778571D01*
X178607143Y-86850000D01*
X178750001Y-86992857D01*
X178821429Y-87135714D01*
X178892858Y-87421429D01*
X178892858Y-87635714D01*
X178821429Y-87921429D01*
X178750001Y-88064286D01*
X178607143Y-88207143D01*
X178392858Y-88278571D01*
X178035715Y-88278571D01*
X179535715Y-88278571D02*
X179535715Y-86778571D01*
X180107143Y-86778571D01*
X180250001Y-86850000D01*
X180321429Y-86921429D01*
X180392858Y-87064286D01*
X180392858Y-87278571D01*
X180321429Y-87421429D01*
X180250001Y-87492857D01*
X180107143Y-87564286D01*
X179535715Y-87564286D01*
X182178572Y-88278571D02*
X182178572Y-87278571D01*
X182178572Y-87564286D02*
X182250000Y-87421429D01*
X182321429Y-87350000D01*
X182464286Y-87278571D01*
X182607143Y-87278571D01*
X183678571Y-88207143D02*
X183535714Y-88278571D01*
X183250000Y-88278571D01*
X183107143Y-88207143D01*
X183035714Y-88064286D01*
X183035714Y-87492857D01*
X183107143Y-87350000D01*
X183250000Y-87278571D01*
X183535714Y-87278571D01*
X183678571Y-87350000D01*
X183750000Y-87492857D01*
X183750000Y-87635714D01*
X183035714Y-87778571D01*
X184250000Y-87278571D02*
X184607143Y-88278571D01*
X184964285Y-87278571D01*
X185821428Y-86778571D02*
X185964285Y-86778571D01*
X186107142Y-86850000D01*
X186178571Y-86921429D01*
X186250000Y-87064286D01*
X186321428Y-87350000D01*
X186321428Y-87707143D01*
X186250000Y-87992857D01*
X186178571Y-88135714D01*
X186107142Y-88207143D01*
X185964285Y-88278571D01*
X185821428Y-88278571D01*
X185678571Y-88207143D01*
X185607142Y-88135714D01*
X185535714Y-87992857D01*
X185464285Y-87707143D01*
X185464285Y-87350000D01*
X185535714Y-87064286D01*
X185607142Y-86921429D01*
X185678571Y-86850000D01*
X185821428Y-86778571D01*
X186821428Y-86778571D02*
X187749999Y-86778571D01*
X187249999Y-87350000D01*
X187464285Y-87350000D01*
X187607142Y-87421429D01*
X187678571Y-87492857D01*
X187749999Y-87635714D01*
X187749999Y-87992857D01*
X187678571Y-88135714D01*
X187607142Y-88207143D01*
X187464285Y-88278571D01*
X187035713Y-88278571D01*
X186892856Y-88207143D01*
X186821428Y-88135714D01*
X176371429Y-107192857D02*
X176585715Y-107264286D01*
X176657143Y-107335714D01*
X176728572Y-107478571D01*
X176728572Y-107692857D01*
X176657143Y-107835714D01*
X176585715Y-107907143D01*
X176442857Y-107978571D01*
X175871429Y-107978571D01*
X175871429Y-106478571D01*
X176371429Y-106478571D01*
X176514286Y-106550000D01*
X176585715Y-106621429D01*
X176657143Y-106764286D01*
X176657143Y-106907143D01*
X176585715Y-107050000D01*
X176514286Y-107121429D01*
X176371429Y-107192857D01*
X175871429Y-107192857D01*
X178085715Y-107978571D02*
X177371429Y-107978571D01*
X177371429Y-106478571D01*
X179728572Y-107978571D02*
X179728572Y-106478571D01*
X180300000Y-106478571D01*
X180442858Y-106550000D01*
X180514286Y-106621429D01*
X180585715Y-106764286D01*
X180585715Y-106978571D01*
X180514286Y-107121429D01*
X180442858Y-107192857D01*
X180300000Y-107264286D01*
X179728572Y-107264286D01*
X181085715Y-106478571D02*
X181442858Y-107978571D01*
X181728572Y-106907143D01*
X182014286Y-107978571D01*
X182371429Y-106478571D01*
X183800001Y-107978571D02*
X183300001Y-107264286D01*
X182942858Y-107978571D02*
X182942858Y-106478571D01*
X183514286Y-106478571D01*
X183657144Y-106550000D01*
X183728572Y-106621429D01*
X183800001Y-106764286D01*
X183800001Y-106978571D01*
X183728572Y-107121429D01*
X183657144Y-107192857D01*
X183514286Y-107264286D01*
X182942858Y-107264286D01*
X176364286Y-104592857D02*
X176578572Y-104664286D01*
X176650000Y-104735714D01*
X176721429Y-104878571D01*
X176721429Y-105092857D01*
X176650000Y-105235714D01*
X176578572Y-105307143D01*
X176435714Y-105378571D01*
X175864286Y-105378571D01*
X175864286Y-103878571D01*
X176364286Y-103878571D01*
X176507143Y-103950000D01*
X176578572Y-104021429D01*
X176650000Y-104164286D01*
X176650000Y-104307143D01*
X176578572Y-104450000D01*
X176507143Y-104521429D01*
X176364286Y-104592857D01*
X175864286Y-104592857D01*
X178078572Y-105378571D02*
X177364286Y-105378571D01*
X177364286Y-103878571D01*
X179721429Y-105378571D02*
X179721429Y-103878571D01*
X180292857Y-103878571D01*
X180435715Y-103950000D01*
X180507143Y-104021429D01*
X180578572Y-104164286D01*
X180578572Y-104378571D01*
X180507143Y-104521429D01*
X180435715Y-104592857D01*
X180292857Y-104664286D01*
X179721429Y-104664286D01*
X181078572Y-103878571D02*
X181435715Y-105378571D01*
X181721429Y-104307143D01*
X182007143Y-105378571D01*
X182364286Y-103878571D01*
X182935715Y-105378571D02*
X182935715Y-103878571D01*
X183435715Y-104950000D01*
X183935715Y-103878571D01*
X183935715Y-105378571D01*
X176300000Y-102092857D02*
X176514286Y-102164286D01*
X176585714Y-102235714D01*
X176657143Y-102378571D01*
X176657143Y-102592857D01*
X176585714Y-102735714D01*
X176514286Y-102807143D01*
X176371428Y-102878571D01*
X175800000Y-102878571D01*
X175800000Y-101378571D01*
X176300000Y-101378571D01*
X176442857Y-101450000D01*
X176514286Y-101521429D01*
X176585714Y-101664286D01*
X176585714Y-101807143D01*
X176514286Y-101950000D01*
X176442857Y-102021429D01*
X176300000Y-102092857D01*
X175800000Y-102092857D01*
X178014286Y-102878571D02*
X177300000Y-102878571D01*
X177300000Y-101378571D01*
X179942857Y-101378571D02*
X180228571Y-101378571D01*
X180371429Y-101450000D01*
X180514286Y-101592857D01*
X180585714Y-101878571D01*
X180585714Y-102378571D01*
X180514286Y-102664286D01*
X180371429Y-102807143D01*
X180228571Y-102878571D01*
X179942857Y-102878571D01*
X179800000Y-102807143D01*
X179657143Y-102664286D01*
X179585714Y-102378571D01*
X179585714Y-101878571D01*
X179657143Y-101592857D01*
X179800000Y-101450000D01*
X179942857Y-101378571D01*
X181228572Y-102878571D02*
X181228572Y-101378571D01*
X182085715Y-102878571D01*
X182085715Y-101378571D01*
X183871429Y-101307143D02*
X182585715Y-103235714D01*
X184657144Y-101378571D02*
X184942858Y-101378571D01*
X185085716Y-101450000D01*
X185228573Y-101592857D01*
X185300001Y-101878571D01*
X185300001Y-102378571D01*
X185228573Y-102664286D01*
X185085716Y-102807143D01*
X184942858Y-102878571D01*
X184657144Y-102878571D01*
X184514287Y-102807143D01*
X184371430Y-102664286D01*
X184300001Y-102378571D01*
X184300001Y-101878571D01*
X184371430Y-101592857D01*
X184514287Y-101450000D01*
X184657144Y-101378571D01*
X186442859Y-102092857D02*
X185942859Y-102092857D01*
X185942859Y-102878571D02*
X185942859Y-101378571D01*
X186657145Y-101378571D01*
X187728573Y-102092857D02*
X187228573Y-102092857D01*
X187228573Y-102878571D02*
X187228573Y-101378571D01*
X187942859Y-101378571D01*
X176342857Y-99692857D02*
X176557143Y-99764286D01*
X176628571Y-99835714D01*
X176700000Y-99978571D01*
X176700000Y-100192857D01*
X176628571Y-100335714D01*
X176557143Y-100407143D01*
X176414285Y-100478571D01*
X175842857Y-100478571D01*
X175842857Y-98978571D01*
X176342857Y-98978571D01*
X176485714Y-99050000D01*
X176557143Y-99121429D01*
X176628571Y-99264286D01*
X176628571Y-99407143D01*
X176557143Y-99550000D01*
X176485714Y-99621429D01*
X176342857Y-99692857D01*
X175842857Y-99692857D01*
X178057143Y-100478571D02*
X177342857Y-100478571D01*
X177342857Y-98978571D01*
X180485714Y-99050000D02*
X180342857Y-98978571D01*
X180128571Y-98978571D01*
X179914286Y-99050000D01*
X179771428Y-99192857D01*
X179700000Y-99335714D01*
X179628571Y-99621429D01*
X179628571Y-99835714D01*
X179700000Y-100121429D01*
X179771428Y-100264286D01*
X179914286Y-100407143D01*
X180128571Y-100478571D01*
X180271428Y-100478571D01*
X180485714Y-100407143D01*
X180557143Y-100335714D01*
X180557143Y-99835714D01*
X180271428Y-99835714D01*
X181200000Y-100478571D02*
X181200000Y-98978571D01*
X182057143Y-100478571D01*
X182057143Y-98978571D01*
X182771429Y-100478571D02*
X182771429Y-98978571D01*
X183128572Y-98978571D01*
X183342857Y-99050000D01*
X183485715Y-99192857D01*
X183557143Y-99335714D01*
X183628572Y-99621429D01*
X183628572Y-99835714D01*
X183557143Y-100121429D01*
X183485715Y-100264286D01*
X183342857Y-100407143D01*
X183128572Y-100478571D01*
X182771429Y-100478571D01*
X175964286Y-97350000D02*
X176678572Y-97350000D01*
X175821429Y-97778571D02*
X176321429Y-96278571D01*
X176821429Y-97778571D01*
X177321429Y-96278571D02*
X177321429Y-97492857D01*
X177392857Y-97635714D01*
X177464286Y-97707143D01*
X177607143Y-97778571D01*
X177892857Y-97778571D01*
X178035715Y-97707143D01*
X178107143Y-97635714D01*
X178178572Y-97492857D01*
X178178572Y-96278571D01*
X179178572Y-96278571D02*
X179464286Y-96278571D01*
X179607144Y-96350000D01*
X179750001Y-96492857D01*
X179821429Y-96778571D01*
X179821429Y-97278571D01*
X179750001Y-97564286D01*
X179607144Y-97707143D01*
X179464286Y-97778571D01*
X179178572Y-97778571D01*
X179035715Y-97707143D01*
X178892858Y-97564286D01*
X178821429Y-97278571D01*
X178821429Y-96778571D01*
X178892858Y-96492857D01*
X179035715Y-96350000D01*
X179178572Y-96278571D01*
X181392858Y-96278571D02*
X182250001Y-96278571D01*
X181821430Y-97778571D02*
X181821430Y-96278571D01*
X182750001Y-96992857D02*
X183250001Y-96992857D01*
X183464287Y-97778571D02*
X182750001Y-97778571D01*
X182750001Y-96278571D01*
X183464287Y-96278571D01*
X184035715Y-97707143D02*
X184250001Y-97778571D01*
X184607144Y-97778571D01*
X184750001Y-97707143D01*
X184821430Y-97635714D01*
X184892858Y-97492857D01*
X184892858Y-97350000D01*
X184821430Y-97207143D01*
X184750001Y-97135714D01*
X184607144Y-97064286D01*
X184321430Y-96992857D01*
X184178572Y-96921429D01*
X184107144Y-96850000D01*
X184035715Y-96707143D01*
X184035715Y-96564286D01*
X184107144Y-96421429D01*
X184178572Y-96350000D01*
X184321430Y-96278571D01*
X184678572Y-96278571D01*
X184892858Y-96350000D01*
X185321429Y-96278571D02*
X186178572Y-96278571D01*
X185750001Y-97778571D02*
X185750001Y-96278571D01*
X175864286Y-95278571D02*
X175864286Y-93778571D01*
X176435714Y-93778571D01*
X176578572Y-93850000D01*
X176650000Y-93921429D01*
X176721429Y-94064286D01*
X176721429Y-94278571D01*
X176650000Y-94421429D01*
X176578572Y-94492857D01*
X176435714Y-94564286D01*
X175864286Y-94564286D01*
X177292857Y-94850000D02*
X178007143Y-94850000D01*
X177150000Y-95278571D02*
X177650000Y-93778571D01*
X178150000Y-95278571D01*
X178650000Y-95278571D02*
X178650000Y-93778571D01*
X179507143Y-95278571D01*
X179507143Y-93778571D01*
X180221429Y-94492857D02*
X180721429Y-94492857D01*
X180935715Y-95278571D02*
X180221429Y-95278571D01*
X180221429Y-93778571D01*
X180935715Y-93778571D01*
X182292858Y-95278571D02*
X181578572Y-95278571D01*
X181578572Y-93778571D01*
X183935715Y-95278571D02*
X183935715Y-93778571D01*
X184507143Y-93778571D01*
X184650001Y-93850000D01*
X184721429Y-93921429D01*
X184792858Y-94064286D01*
X184792858Y-94278571D01*
X184721429Y-94421429D01*
X184650001Y-94492857D01*
X184507143Y-94564286D01*
X183935715Y-94564286D01*
X185292858Y-93778571D02*
X185650001Y-95278571D01*
X185935715Y-94207143D01*
X186221429Y-95278571D01*
X186578572Y-93778571D01*
X188007144Y-95278571D02*
X187507144Y-94564286D01*
X187150001Y-95278571D02*
X187150001Y-93778571D01*
X187721429Y-93778571D01*
X187864287Y-93850000D01*
X187935715Y-93921429D01*
X188007144Y-94064286D01*
X188007144Y-94278571D01*
X187935715Y-94421429D01*
X187864287Y-94492857D01*
X187721429Y-94564286D01*
X187150001Y-94564286D01*
D13*
X148061905Y-87945381D02*
X148061905Y-86945381D01*
X148442858Y-86945381D01*
X148538096Y-86993000D01*
X148585715Y-87040619D01*
X148633334Y-87135857D01*
X148633334Y-87278714D01*
X148585715Y-87373952D01*
X148538096Y-87421571D01*
X148442858Y-87469190D01*
X148061905Y-87469190D01*
X149014286Y-87040619D02*
X149061905Y-86993000D01*
X149157143Y-86945381D01*
X149395239Y-86945381D01*
X149490477Y-86993000D01*
X149538096Y-87040619D01*
X149585715Y-87135857D01*
X149585715Y-87231095D01*
X149538096Y-87373952D01*
X148966667Y-87945381D01*
X149585715Y-87945381D01*
X138666667Y-97502381D02*
X138666667Y-98216667D01*
X138619047Y-98359524D01*
X138523809Y-98454762D01*
X138380952Y-98502381D01*
X138285714Y-98502381D01*
X139666667Y-98502381D02*
X139095238Y-98502381D01*
X139380952Y-98502381D02*
X139380952Y-97502381D01*
X139285714Y-97645238D01*
X139190476Y-97740476D01*
X139095238Y-97788095D01*
X172561905Y-92952381D02*
X172561905Y-91952381D01*
X172942858Y-91952381D01*
X173038096Y-92000000D01*
X173085715Y-92047619D01*
X173133334Y-92142857D01*
X173133334Y-92285714D01*
X173085715Y-92380952D01*
X173038096Y-92428571D01*
X172942858Y-92476190D01*
X172561905Y-92476190D01*
X174085715Y-92952381D02*
X173514286Y-92952381D01*
X173800000Y-92952381D02*
X173800000Y-91952381D01*
X173704762Y-92095238D01*
X173609524Y-92190476D01*
X173514286Y-92238095D01*
M02*
