M48
;DRILL file {KiCad 4.0.7} date 09/28/18 02:58:10
;FORMAT={3:3/ absolute / metric / suppress leading zeros}
FMAT,2
METRIC,TZ
T1C0.330
T2C0.700
T3C1.020
T4C1.400
%
G90
G05
M71
T1
X135500Y-95600
X136500Y-94800
X137500Y-94100
X137900Y-104400
X138000Y-108700
X138700Y-103700
X138700Y-107800
X139500Y-104400
X139500Y-106900
X140300Y-96400
X141500Y-96300
X142500Y-105500
X144000Y-105500
X145000Y-94100
X145700Y-94800
X146600Y-97100
X147500Y-96700
X149700Y-95300
X149700Y-96700
X149700Y-97900
X151600Y-96000
X153100Y-96200
X154300Y-96200
X154600Y-99100
X157600Y-96200
X158900Y-102200
X162700Y-104800
X167400Y-97000
X168800Y-107300
X170100Y-97100
T3
X173300Y-94600
X173300Y-97140
X173300Y-99680
X173300Y-102220
X173300Y-104760
X173300Y-107300
T4
X139000Y-111800
T2
X130750Y-103370G85X130750Y-104870
G05
X130750Y-110350G85X130750Y-111450
G05
X147250Y-103370G85X147250Y-104870
G05
X147250Y-110350G85X147250Y-111450
G05
T0
M30
