G04 #@! TF.FileFunction,Copper,L2,Bot,Signal*
%FSLAX46Y46*%
G04 Gerber Fmt 4.6, Leading zero omitted, Abs format (unit mm)*
G04 Created by KiCad (PCBNEW 4.0.7) date 09/28/18 02:57:55*
%MOMM*%
%LPD*%
G01*
G04 APERTURE LIST*
%ADD10C,0.100000*%
%ADD11O,1.300000X2.800000*%
%ADD12O,1.300000X2.400000*%
%ADD13C,1.400000*%
%ADD14C,1.602000*%
%ADD15C,0.685800*%
%ADD16C,0.152400*%
G04 APERTURE END LIST*
D10*
D11*
X130750000Y-104120000D03*
D12*
X130750000Y-110900000D03*
D13*
X139000000Y-111800000D03*
D12*
X147250000Y-110900000D03*
D11*
X147250000Y-104120000D03*
D14*
X173300000Y-94600000D03*
X173300000Y-97140000D03*
X173300000Y-99680000D03*
X173300000Y-102220000D03*
X173300000Y-104760000D03*
X173300000Y-107300000D03*
D15*
X141500000Y-96300000D03*
X144000000Y-105500000D03*
X140300000Y-96400000D03*
X142500000Y-105500000D03*
X135500000Y-95600000D03*
X149700000Y-95300000D03*
X136500000Y-94800000D03*
X145700000Y-94800000D03*
X137500000Y-94100000D03*
X145000000Y-94100000D03*
X137900000Y-104400000D03*
X138000000Y-108700000D03*
X138700000Y-107800000D03*
X138700000Y-103700000D03*
X139500000Y-104400000D03*
X139500000Y-106900000D03*
X149700000Y-97900000D03*
X146600000Y-97100000D03*
X170100000Y-97100000D03*
X167400000Y-97000000D03*
X149700000Y-96700000D03*
X147500000Y-96700000D03*
X154600000Y-99100000D03*
X151600000Y-96000000D03*
X158900000Y-102200000D03*
X153100000Y-96200000D03*
X162700000Y-104800000D03*
X154300000Y-96200000D03*
X168800000Y-107300000D03*
X157600000Y-96200000D03*
D16*
X141500000Y-96600000D02*
X141500000Y-96300000D01*
X144000000Y-99100000D02*
X141500000Y-96600000D01*
X144000000Y-105500000D02*
X144000000Y-99100000D01*
X140300000Y-96600000D02*
X140300000Y-96400000D01*
X142500000Y-98800000D02*
X140300000Y-96600000D01*
X142500000Y-105500000D02*
X142500000Y-98800000D01*
X149400000Y-95600000D02*
X135500000Y-95600000D01*
X149700000Y-95300000D02*
X149400000Y-95600000D01*
X145700000Y-94800000D02*
X136500000Y-94800000D01*
X145000000Y-94100000D02*
X137500000Y-94100000D01*
X137900000Y-108600000D02*
X137900000Y-104400000D01*
X138000000Y-108700000D02*
X137900000Y-108600000D01*
X138700000Y-103700000D02*
X138700000Y-107800000D01*
X139500000Y-106900000D02*
X139500000Y-104400000D01*
X147400000Y-97900000D02*
X149700000Y-97900000D01*
X146600000Y-97100000D02*
X147400000Y-97900000D01*
X167500000Y-97100000D02*
X170100000Y-97100000D01*
X167400000Y-97000000D02*
X167500000Y-97100000D01*
X147500000Y-96700000D02*
X149700000Y-96700000D01*
X154600000Y-99000000D02*
X154600000Y-99100000D01*
X151600000Y-96000000D02*
X154600000Y-99000000D01*
X158900000Y-102000000D02*
X158900000Y-102200000D01*
X153100000Y-96200000D02*
X158900000Y-102000000D01*
X162700000Y-104600000D02*
X162700000Y-104800000D01*
X154300000Y-96200000D02*
X162700000Y-104600000D01*
X168700000Y-107300000D02*
X168800000Y-107300000D01*
X157600000Y-96200000D02*
X168700000Y-107300000D01*
M02*
