<svg version="1.1" xmlns="http://www.w3.org/2000/svg" xmlns:xlink="http://www.w3.org/1999/xlink" stroke-linecap="round" stroke-linejoin="round" stroke-width="0" fill-rule="evenodd" width="81.970239mm" height="82.817381mm" viewBox="55252.38 -136638.095 81970.239 82817.381" id="fueEtiGLe-qoUpvhTRbs"><g transform="translate(0,-190458.809) scale(1,-1)" fill="currentColor" stroke="currentColor"><path d="M 88940.476 -85804.761 89083.333 -85852.38 89321.428 -85852.38 89416.666 -85804.761 89464.285 -85757.142 89511.904 -85661.904 89511.904 -85566.666 89464.285 -85471.428 89416.666 -85423.809 89321.428 -85376.19 89130.952 -85328.571 89035.714 -85280.952 88988.095 -85233.333 88940.476 -85138.095 88940.476 -85042.857 88988.095 -84947.619 89035.714 -84900 89130.952 -84852.38 89369.047 -84852.38 89511.904 -84900 M 90273.809 -85328.571 90416.666 -85376.19 90464.285 -85423.809 90511.904 -85519.047 90511.904 -85661.904 90464.285 -85757.142 90416.666 -85804.761 90321.428 -85852.38 89940.476 -85852.38 89940.476 -84852.38 90273.809 -84852.38 90369.047 -84900 90416.666 -84947.619 90464.285 -85042.857 90464.285 -85138.095 90416.666 -85233.333 90369.047 -85280.952 90273.809 -85328.571 89940.476 -85328.571 M 90940.476 -85852.38 90940.476 -84852.38 M 90940.476 -85328.571 91511.904 -85328.571 M 91511.904 -85852.38 91511.904 -84852.38" fill="none" stroke-width="150"/><path d="M 100100 -86550 100100 -88475 M 89025 -86550 100100 -86550 M 89025 -88475 100028.6 -88475 M 89025 -86550 89025 -88475" fill="none" stroke-width="120"/><path d="M 89480.952 -87877.38 89480.952 -86877.38 89719.047 -86877.38 89861.904 -86925 89957.142 -87020.238 90004.761 -87115.476 90052.38 -87305.952 90052.38 -87448.809 90004.761 -87639.285 89957.142 -87734.523 89861.904 -87829.761 89719.047 -87877.38 89480.952 -87877.38 M 90480.952 -87877.38 90480.952 -86877.38 90861.904 -86877.38 90957.142 -86925 91004.761 -86972.619 91052.38 -87067.857 91052.38 -87210.714 91004.761 -87305.952 90957.142 -87353.571 90861.904 -87401.19 90480.952 -87401.19 M 91433.333 -86972.619 91480.952 -86925 91576.19 -86877.38 91814.285 -86877.38 91909.523 -86925 91957.142 -86972.619 92004.761 -87067.857 92004.761 -87163.095 91957.142 -87305.952 91385.714 -87877.38 92004.761 -87877.38 M 92814.285 -87829.761 92719.047 -87877.38 92528.571 -87877.38 92433.333 -87829.761 92385.714 -87734.523 92385.714 -87353.571 92433.333 -87258.333 92528.571 -87210.714 92719.047 -87210.714 92814.285 -87258.333 92861.904 -87353.571 92861.904 -87448.809 92385.714 -87544.047 M 93290.476 -87877.38 93290.476 -86877.38 93528.571 -86877.38 93671.428 -86925 93766.666 -87020.238 93814.285 -87115.476 93861.904 -87305.952 93861.904 -87448.809 93814.285 -87639.285 93766.666 -87734.523 93671.428 -87829.761 93528.571 -87877.38 93290.476 -87877.38 M 94290.476 -87877.38 94290.476 -86877.38 94671.428 -86877.38 94766.666 -86925 94814.285 -86972.619 94861.904 -87067.857 94861.904 -87210.714 94814.285 -87305.952 94766.666 -87353.571 94671.428 -87401.19 94290.476 -87401.19 M 96052.38 -87877.38 96052.38 -87210.714 M 96052.38 -87401.19 96100 -87305.952 96147.619 -87258.333 96242.857 -87210.714 96338.095 -87210.714 M 97052.38 -87829.761 96957.142 -87877.38 96766.666 -87877.38 96671.428 -87829.761 96623.809 -87734.523 96623.809 -87353.571 96671.428 -87258.333 96766.666 -87210.714 96957.142 -87210.714 97052.38 -87258.333 97100 -87353.571 97100 -87448.809 96623.809 -87544.047 M 97433.333 -87210.714 97671.428 -87877.38 97909.523 -87210.714 M 98480.952 -86877.38 98576.19 -86877.38 98671.428 -86925 98719.047 -86972.619 98766.666 -87067.857 98814.285 -87258.333 98814.285 -87496.428 98766.666 -87686.904 98719.047 -87782.142 98671.428 -87829.761 98576.19 -87877.38 98480.952 -87877.38 98385.714 -87829.761 98338.095 -87782.142 98290.476 -87686.904 98242.857 -87496.428 98242.857 -87258.333 98290.476 -87067.857 98338.095 -86972.619 98385.714 -86925 98480.952 -86877.38 M 99719.047 -86877.38 99242.857 -86877.38 99195.238 -87353.571 99242.857 -87305.952 99338.095 -87258.333 99576.19 -87258.333 99671.428 -87305.952 99719.047 -87353.571 99766.666 -87448.809 99766.666 -87686.904 99719.047 -87782.142 99671.428 -87829.761 99576.19 -87877.38 99338.095 -87877.38 99242.857 -87829.761 99195.238 -87782.142 M 121228.571 -84592.857 121276.19 -84450 121323.809 -84402.38 121419.047 -84354.761 121561.904 -84354.761 121657.142 -84402.38 121704.761 -84450 121752.38 -84545.238 121752.38 -84926.19 120752.38 -84926.19 120752.38 -84592.857 120800 -84497.619 120847.619 -84450 120942.857 -84402.38 121038.095 -84402.38 121133.333 -84450 121180.952 -84497.619 121228.571 -84592.857 121228.571 -84926.19 M 121752.38 -83450 121752.38 -83926.19 120752.38 -83926.19 M 121847.619 -83354.761 121847.619 -82592.857 M 120752.38 -82497.619 121752.38 -82164.285 120752.38 -81830.952 M 121657.142 -80926.19 121704.761 -80973.809 121752.38 -81116.666 121752.38 -81211.904 121704.761 -81354.761 121609.523 -81450 121514.285 -81497.619 121323.809 -81545.238 121180.952 -81545.238 120990.476 -81497.619 120895.238 -81450 120800 -81354.761 120752.38 -81211.904 120752.38 -81116.666 120800 -80973.809 120847.619 -80926.19 M 121657.142 -79926.19 121704.761 -79973.809 121752.38 -80116.666 121752.38 -80211.904 121704.761 -80354.761 121609.523 -80450 121514.285 -80497.619 121323.809 -80545.238 121180.952 -80545.238 120990.476 -80497.619 120895.238 -80450 120800 -80354.761 120752.38 -80211.904 120752.38 -80116.666 120800 -79973.809 120847.619 -79926.19 M 119253.571 -134842.857 119301.19 -134700 119348.809 -134652.38 119444.047 -134604.761 119586.904 -134604.761 119682.142 -134652.38 119729.761 -134700 119777.38 -134795.238 119777.38 -135176.19 118777.38 -135176.19 118777.38 -134842.857 118825 -134747.619 118872.619 -134700 118967.857 -134652.38 119063.095 -134652.38 119158.333 -134700 119205.952 -134747.619 119253.571 -134842.857 119253.571 -135176.19 M 119777.38 -133700 119777.38 -134176.19 118777.38 -134176.19 M 119872.619 -133604.761 119872.619 -132842.857 M 118777.38 -132747.619 119777.38 -132414.285 118777.38 -132080.952 M 119682.142 -131176.19 119729.761 -131223.809 119777.38 -131366.666 119777.38 -131461.904 119729.761 -131604.761 119634.523 -131700 119539.285 -131747.619 119348.809 -131795.238 119205.952 -131795.238 119015.476 -131747.619 118920.238 -131700 118825 -131604.761 118777.38 -131461.904 118777.38 -131366.666 118825 -131223.809 118872.619 -131176.19 M 119682.142 -130176.19 119729.761 -130223.809 119777.38 -130366.666 119777.38 -130461.904 119729.761 -130604.761 119634.523 -130700 119539.285 -130747.619 119348.809 -130795.238 119205.952 -130795.238 119015.476 -130747.619 118920.238 -130700 118825 -130604.761 118777.38 -130461.904 118777.38 -130366.666 118825 -130223.809 118872.619 -130176.19 M 82003.571 -106942.857 82051.19 -106800 82098.809 -106752.38 82194.047 -106704.761 82336.904 -106704.761 82432.142 -106752.38 82479.761 -106800 82527.38 -106895.238 82527.38 -107276.19 81527.38 -107276.19 81527.38 -106942.857 81575 -106847.619 81622.619 -106800 81717.857 -106752.38 81813.095 -106752.38 81908.333 -106800 81955.952 -106847.619 82003.571 -106942.857 82003.571 -107276.19 M 82527.38 -105800 82527.38 -106276.19 81527.38 -106276.19 M 82622.619 -105704.761 82622.619 -104942.857 M 81527.38 -104847.619 82527.38 -104514.285 81527.38 -104180.952 M 82432.142 -103276.19 82479.761 -103323.809 82527.38 -103466.666 82527.38 -103561.904 82479.761 -103704.761 82384.523 -103800 82289.285 -103847.619 82098.809 -103895.238 81955.952 -103895.238 81765.476 -103847.619 81670.238 -103800 81575 -103704.761 81527.38 -103561.904 81527.38 -103466.666 81575 -103323.809 81622.619 -103276.19 M 82432.142 -102276.19 82479.761 -102323.809 82527.38 -102466.666 82527.38 -102561.904 82479.761 -102704.761 82384.523 -102800 82289.285 -102847.619 82098.809 -102895.238 81955.952 -102895.238 81765.476 -102847.619 81670.238 -102800 81575 -102704.761 81527.38 -102561.904 81527.38 -102466.666 81575 -102323.809 81622.619 -102276.19 M 123753.571 -84507.142 123801.19 -84364.285 123848.809 -84316.666 123944.047 -84269.047 124086.904 -84269.047 124182.142 -84316.666 124229.761 -84364.285 124277.38 -84459.523 124277.38 -84840.476 123277.38 -84840.476 123277.38 -84507.142 123325 -84411.904 123372.619 -84364.285 123467.857 -84316.666 123563.095 -84316.666 123658.333 -84364.285 123705.952 -84411.904 123753.571 -84507.142 123753.571 -84840.476 M 124277.38 -83364.285 124277.38 -83840.476 123277.38 -83840.476 M 124372.619 -83269.047 124372.619 -82507.142 M 124277.38 -82269.047 123277.38 -82269.047 123277.38 -81888.095 123325 -81792.857 123372.619 -81745.238 123467.857 -81697.619 123610.714 -81697.619 123705.952 -81745.238 123753.571 -81792.857 123801.19 -81888.095 123801.19 -82269.047 M 123277.38 -81364.285 124277.38 -81126.19 123563.095 -80935.714 124277.38 -80745.238 123277.38 -80507.142 M 124277.38 -80126.19 123277.38 -80126.19 123991.666 -79792.857 123277.38 -79459.523 124277.38 -79459.523 M 121853.571 -135282.142 121901.19 -135139.285 121948.809 -135091.666 122044.047 -135044.047 122186.904 -135044.047 122282.142 -135091.666 122329.761 -135139.285 122377.38 -135234.523 122377.38 -135615.476 121377.38 -135615.476 121377.38 -135282.142 121425 -135186.904 121472.619 -135139.285 121567.857 -135091.666 121663.095 -135091.666 121758.333 -135139.285 121805.952 -135186.904 121853.571 -135282.142 121853.571 -135615.476 M 122377.38 -134139.285 122377.38 -134615.476 121377.38 -134615.476 M 122472.619 -134044.047 122472.619 -133282.142 M 122377.38 -133044.047 121377.38 -133044.047 121377.38 -132663.095 121425 -132567.857 121472.619 -132520.238 121567.857 -132472.619 121710.714 -132472.619 121805.952 -132520.238 121853.571 -132567.857 121901.19 -132663.095 121901.19 -133044.047 M 121377.38 -132139.285 122377.38 -131901.19 121663.095 -131710.714 122377.38 -131520.238 121377.38 -131282.142 M 122377.38 -130901.19 121377.38 -130901.19 122091.666 -130567.857 121377.38 -130234.523 122377.38 -130234.523 M 79528.571 -107307.142 79576.19 -107164.285 79623.809 -107116.666 79719.047 -107069.047 79861.904 -107069.047 79957.142 -107116.666 80004.761 -107164.285 80052.38 -107259.523 80052.38 -107640.476 79052.38 -107640.476 79052.38 -107307.142 79100 -107211.904 79147.619 -107164.285 79242.857 -107116.666 79338.095 -107116.666 79433.333 -107164.285 79480.952 -107211.904 79528.571 -107307.142 79528.571 -107640.476 M 80052.38 -106164.285 80052.38 -106640.476 79052.38 -106640.476 M 80147.619 -106069.047 80147.619 -105307.142 M 80052.38 -105069.047 79052.38 -105069.047 79052.38 -104688.095 79100 -104592.857 79147.619 -104545.238 79242.857 -104497.619 79385.714 -104497.619 79480.952 -104545.238 79528.571 -104592.857 79576.19 -104688.095 79576.19 -105069.047 M 79052.38 -104164.285 80052.38 -103926.19 79338.095 -103735.714 80052.38 -103545.238 79052.38 -103307.142 M 80052.38 -102926.19 79052.38 -102926.19 79766.666 -102592.857 79052.38 -102259.523 80052.38 -102259.523 M 126203.571 -84440.476 126251.19 -84297.619 126298.809 -84250 126394.047 -84202.38 126536.904 -84202.38 126632.142 -84250 126679.761 -84297.619 126727.38 -84392.857 126727.38 -84773.809 125727.38 -84773.809 125727.38 -84440.476 125775 -84345.238 125822.619 -84297.619 125917.857 -84250 126013.095 -84250 126108.333 -84297.619 126155.952 -84345.238 126203.571 -84440.476 126203.571 -84773.809 M 126727.38 -83297.619 126727.38 -83773.809 125727.38 -83773.809 M 126822.619 -83202.38 126822.619 -82440.476 M 126203.571 -82202.38 126203.571 -81869.047 M 126727.38 -81726.19 126727.38 -82202.38 125727.38 -82202.38 125727.38 -81726.19 M 126727.38 -81297.619 125727.38 -81297.619 126727.38 -80726.19 125727.38 -80726.19 M 124403.571 -134040.476 124451.19 -133897.619 124498.809 -133850 124594.047 -133802.38 124736.904 -133802.38 124832.142 -133850 124879.761 -133897.619 124927.38 -133992.857 124927.38 -134373.809 123927.38 -134373.809 123927.38 -134040.476 123975 -133945.238 124022.619 -133897.619 124117.857 -133850 124213.095 -133850 124308.333 -133897.619 124355.952 -133945.238 124403.571 -134040.476 124403.571 -134373.809 M 124927.38 -132897.619 124927.38 -133373.809 123927.38 -133373.809 M 125022.619 -132802.38 125022.619 -132040.476 M 124403.571 -131802.38 124403.571 -131469.047 M 124927.38 -131326.19 124927.38 -131802.38 123927.38 -131802.38 123927.38 -131326.19 M 124927.38 -130897.619 123927.38 -130897.619 124927.38 -130326.19 123927.38 -130326.19 M 76853.571 -105840.476 76901.19 -105697.619 76948.809 -105650 77044.047 -105602.38 77186.904 -105602.38 77282.142 -105650 77329.761 -105697.619 77377.38 -105792.857 77377.38 -106173.809 76377.38 -106173.809 76377.38 -105840.476 76425 -105745.238 76472.619 -105697.619 76567.857 -105650 76663.095 -105650 76758.333 -105697.619 76805.952 -105745.238 76853.571 -105840.476 76853.571 -106173.809 M 77377.38 -104697.619 77377.38 -105173.809 76377.38 -105173.809 M 77472.619 -104602.38 77472.619 -103840.476 M 76853.571 -103602.38 76853.571 -103269.047 M 77377.38 -103126.19 77377.38 -103602.38 76377.38 -103602.38 76377.38 -103126.19 M 77377.38 -102697.619 76377.38 -102697.619 77377.38 -102126.19 76377.38 -102126.19 M 128853.571 -84463.095 128901.19 -84320.238 128948.809 -84272.619 129044.047 -84225 129186.904 -84225 129282.142 -84272.619 129329.761 -84320.238 129377.38 -84415.476 129377.38 -84796.428 128377.38 -84796.428 128377.38 -84463.095 128425 -84367.857 128472.619 -84320.238 128567.857 -84272.619 128663.095 -84272.619 128758.333 -84320.238 128805.952 -84367.857 128853.571 -84463.095 128853.571 -84796.428 M 129377.38 -83320.238 129377.38 -83796.428 128377.38 -83796.428 M 129472.619 -83225 129472.619 -82463.095 M 128425 -81701.19 128377.38 -81796.428 128377.38 -81939.285 128425 -82082.142 128520.238 -82177.38 128615.476 -82225 128805.952 -82272.619 128948.809 -82272.619 129139.285 -82225 129234.523 -82177.38 129329.761 -82082.142 129377.38 -81939.285 129377.38 -81844.047 129329.761 -81701.19 129282.142 -81653.571 128948.809 -81653.571 128948.809 -81844.047 M 129377.38 -81225 128377.38 -81225 129377.38 -80653.571 128377.38 -80653.571 M 129377.38 -80177.38 128377.38 -80177.38 128377.38 -79939.285 128425 -79796.428 128520.238 -79701.19 128615.476 -79653.571 128805.952 -79605.952 128948.809 -79605.952 129139.285 -79653.571 129234.523 -79701.19 129329.761 -79796.428 129377.38 -79939.285 129377.38 -80177.38 M 126953.571 -135063.095 127001.19 -134920.238 127048.809 -134872.619 127144.047 -134825 127286.904 -134825 127382.142 -134872.619 127429.761 -134920.238 127477.38 -135015.476 127477.38 -135396.428 126477.38 -135396.428 126477.38 -135063.095 126525 -134967.857 126572.619 -134920.238 126667.857 -134872.619 126763.095 -134872.619 126858.333 -134920.238 126905.952 -134967.857 126953.571 -135063.095 126953.571 -135396.428 M 127477.38 -133920.238 127477.38 -134396.428 126477.38 -134396.428 M 127572.619 -133825 127572.619 -133063.095 M 126525 -132301.19 126477.38 -132396.428 126477.38 -132539.285 126525 -132682.142 126620.238 -132777.38 126715.476 -132825 126905.952 -132872.619 127048.809 -132872.619 127239.285 -132825 127334.523 -132777.38 127429.761 -132682.142 127477.38 -132539.285 127477.38 -132444.047 127429.761 -132301.19 127382.142 -132253.571 127048.809 -132253.571 127048.809 -132444.047 M 127477.38 -131825 126477.38 -131825 127477.38 -131253.571 126477.38 -131253.571 M 127477.38 -130777.38 126477.38 -130777.38 126477.38 -130539.285 126525 -130396.428 126620.238 -130301.19 126715.476 -130253.571 126905.952 -130205.952 127048.809 -130205.952 127239.285 -130253.571 127334.523 -130301.19 127429.761 -130396.428 127477.38 -130539.285 127477.38 -130777.38 M 74428.571 -106963.095 74476.19 -106820.238 74523.809 -106772.619 74619.047 -106725 74761.904 -106725 74857.142 -106772.619 74904.761 -106820.238 74952.38 -106915.476 74952.38 -107296.428 73952.38 -107296.428 73952.38 -106963.095 74000 -106867.857 74047.619 -106820.238 74142.857 -106772.619 74238.095 -106772.619 74333.333 -106820.238 74380.952 -106867.857 74428.571 -106963.095 74428.571 -107296.428 M 74952.38 -105820.238 74952.38 -106296.428 73952.38 -106296.428 M 75047.619 -105725 75047.619 -104963.095 M 74000 -104201.19 73952.38 -104296.428 73952.38 -104439.285 74000 -104582.142 74095.238 -104677.38 74190.476 -104725 74380.952 -104772.619 74523.809 -104772.619 74714.285 -104725 74809.523 -104677.38 74904.761 -104582.142 74952.38 -104439.285 74952.38 -104344.047 74904.761 -104201.19 74857.142 -104153.571 74523.809 -104153.571 74523.809 -104344.047 M 74952.38 -103725 73952.38 -103725 74952.38 -103153.571 73952.38 -103153.571 M 74952.38 -102677.38 73952.38 -102677.38 73952.38 -102439.285 74000 -102296.428 74095.238 -102201.19 74190.476 -102153.571 74380.952 -102105.952 74523.809 -102105.952 74714.285 -102153.571 74809.523 -102201.19 74904.761 -102296.428 74952.38 -102439.285 74952.38 -102677.38 M 131802.38 -84320.238 131802.38 -84796.428 130802.38 -84796.428 M 131707.142 -83415.476 131754.761 -83463.095 131802.38 -83605.952 131802.38 -83701.19 131754.761 -83844.047 131659.523 -83939.285 131564.285 -83986.904 131373.809 -84034.523 131230.952 -84034.523 131040.476 -83986.904 130945.238 -83939.285 130850 -83844.047 130802.38 -83701.19 130802.38 -83605.952 130850 -83463.095 130897.619 -83415.476 M 131802.38 -82986.904 130802.38 -82986.904 130802.38 -82748.809 130850 -82605.952 130945.238 -82510.714 131040.476 -82463.095 131230.952 -82415.476 131373.809 -82415.476 131564.285 -82463.095 131659.523 -82510.714 131754.761 -82605.952 131802.38 -82748.809 131802.38 -82986.904 M 131897.619 -82225 131897.619 -81463.095 M 130850 -80701.19 130802.38 -80796.428 130802.38 -80939.285 130850 -81082.142 130945.238 -81177.38 131040.476 -81225 131230.952 -81272.619 131373.809 -81272.619 131564.285 -81225 131659.523 -81177.38 131754.761 -81082.142 131802.38 -80939.285 131802.38 -80844.047 131754.761 -80701.19 131707.142 -80653.571 131373.809 -80653.571 131373.809 -80844.047 M 131802.38 -80225 130802.38 -80225 131802.38 -79653.571 130802.38 -79653.571 M 131802.38 -79177.38 130802.38 -79177.38 130802.38 -78939.285 130850 -78796.428 130945.238 -78701.19 131040.476 -78653.571 131230.952 -78605.952 131373.809 -78605.952 131564.285 -78653.571 131659.523 -78701.19 131754.761 -78796.428 131802.38 -78939.285 131802.38 -79177.38 M 130027.38 -135820.238 130027.38 -136296.428 129027.38 -136296.428 M 129932.142 -134915.476 129979.761 -134963.095 130027.38 -135105.952 130027.38 -135201.19 129979.761 -135344.047 129884.523 -135439.285 129789.285 -135486.904 129598.809 -135534.523 129455.952 -135534.523 129265.476 -135486.904 129170.238 -135439.285 129075 -135344.047 129027.38 -135201.19 129027.38 -135105.952 129075 -134963.095 129122.619 -134915.476 M 130027.38 -134486.904 129027.38 -134486.904 129027.38 -134248.809 129075 -134105.952 129170.238 -134010.714 129265.476 -133963.095 129455.952 -133915.476 129598.809 -133915.476 129789.285 -133963.095 129884.523 -134010.714 129979.761 -134105.952 130027.38 -134248.809 130027.38 -134486.904 M 130122.619 -133725 130122.619 -132963.095 M 129075 -132201.19 129027.38 -132296.428 129027.38 -132439.285 129075 -132582.142 129170.238 -132677.38 129265.476 -132725 129455.952 -132772.619 129598.809 -132772.619 129789.285 -132725 129884.523 -132677.38 129979.761 -132582.142 130027.38 -132439.285 130027.38 -132344.047 129979.761 -132201.19 129932.142 -132153.571 129598.809 -132153.571 129598.809 -132344.047 M 130027.38 -131725 129027.38 -131725 130027.38 -131153.571 129027.38 -131153.571 M 130027.38 -130677.38 129027.38 -130677.38 129027.38 -130439.285 129075 -130296.428 129170.238 -130201.19 129265.476 -130153.571 129455.952 -130105.952 129598.809 -130105.952 129789.285 -130153.571 129884.523 -130201.19 129979.761 -130296.428 130027.38 -130439.285 130027.38 -130677.38 M 72402.38 -107845.238 72402.38 -108321.428 71402.38 -108321.428 M 72307.142 -106940.476 72354.761 -106988.095 72402.38 -107130.952 72402.38 -107226.19 72354.761 -107369.047 72259.523 -107464.285 72164.285 -107511.904 71973.809 -107559.523 71830.952 -107559.523 71640.476 -107511.904 71545.238 -107464.285 71450 -107369.047 71402.38 -107226.19 71402.38 -107130.952 71450 -106988.095 71497.619 -106940.476 M 72402.38 -106511.904 71402.38 -106511.904 71402.38 -106273.809 71450 -106130.952 71545.238 -106035.714 71640.476 -105988.095 71830.952 -105940.476 71973.809 -105940.476 72164.285 -105988.095 72259.523 -106035.714 72354.761 -106130.952 72402.38 -106273.809 72402.38 -106511.904 M 72497.619 -105750 72497.619 -104988.095 M 71450 -104226.19 71402.38 -104321.428 71402.38 -104464.285 71450 -104607.142 71545.238 -104702.38 71640.476 -104750 71830.952 -104797.619 71973.809 -104797.619 72164.285 -104750 72259.523 -104702.38 72354.761 -104607.142 72402.38 -104464.285 72402.38 -104369.047 72354.761 -104226.19 72307.142 -104178.571 71973.809 -104178.571 71973.809 -104369.047 M 72402.38 -103750 71402.38 -103750 72402.38 -103178.571 71402.38 -103178.571 M 72402.38 -102702.38 71402.38 -102702.38 71402.38 -102464.285 71450 -102321.428 71545.238 -102226.19 71640.476 -102178.571 71830.952 -102130.952 71973.809 -102130.952 72164.285 -102178.571 72259.523 -102226.19 72354.761 -102321.428 72402.38 -102464.285 72402.38 -102702.38 M 134402.38 -84461.904 134402.38 -84938.095 133402.38 -84938.095 M 134307.142 -83557.142 134354.761 -83604.761 134402.38 -83747.619 134402.38 -83842.857 134354.761 -83985.714 134259.523 -84080.952 134164.285 -84128.571 133973.809 -84176.19 133830.952 -84176.19 133640.476 -84128.571 133545.238 -84080.952 133450 -83985.714 133402.38 -83842.857 133402.38 -83747.619 133450 -83604.761 133497.619 -83557.142 M 134402.38 -83128.571 133402.38 -83128.571 133402.38 -82890.476 133450 -82747.619 133545.238 -82652.38 133640.476 -82604.761 133830.952 -82557.142 133973.809 -82557.142 134164.285 -82604.761 134259.523 -82652.38 134354.761 -82747.619 134402.38 -82890.476 134402.38 -83128.571 M 134497.619 -82366.666 134497.619 -81604.761 M 133402.38 -81509.523 133402.38 -80938.095 M 134402.38 -81223.809 133402.38 -81223.809 M 133878.571 -80604.761 133878.571 -80271.428 M 134402.38 -80128.571 134402.38 -80604.761 133402.38 -80604.761 133402.38 -80128.571 M 134354.761 -79747.619 134402.38 -79604.761 134402.38 -79366.666 134354.761 -79271.428 134307.142 -79223.809 134211.904 -79176.19 134116.666 -79176.19 134021.428 -79223.809 133973.809 -79271.428 133926.19 -79366.666 133878.571 -79557.142 133830.952 -79652.38 133783.333 -79700 133688.095 -79747.619 133592.857 -79747.619 133497.619 -79700 133450 -79652.38 133402.38 -79557.142 133402.38 -79319.047 133450 -79176.19 M 133402.38 -78890.476 133402.38 -78319.047 M 134402.38 -78604.761 133402.38 -78604.761 M 132602.38 -136086.904 132602.38 -136563.095 131602.38 -136563.095 M 132507.142 -135182.142 132554.761 -135229.761 132602.38 -135372.619 132602.38 -135467.857 132554.761 -135610.714 132459.523 -135705.952 132364.285 -135753.571 132173.809 -135801.19 132030.952 -135801.19 131840.476 -135753.571 131745.238 -135705.952 131650 -135610.714 131602.38 -135467.857 131602.38 -135372.619 131650 -135229.761 131697.619 -135182.142 M 132602.38 -134753.571 131602.38 -134753.571 131602.38 -134515.476 131650 -134372.619 131745.238 -134277.38 131840.476 -134229.761 132030.952 -134182.142 132173.809 -134182.142 132364.285 -134229.761 132459.523 -134277.38 132554.761 -134372.619 132602.38 -134515.476 132602.38 -134753.571 M 132697.619 -133991.666 132697.619 -133229.761 M 131602.38 -133134.523 131602.38 -132563.095 M 132602.38 -132848.809 131602.38 -132848.809 M 132078.571 -132229.761 132078.571 -131896.428 M 132602.38 -131753.571 132602.38 -132229.761 131602.38 -132229.761 131602.38 -131753.571 M 132554.761 -131372.619 132602.38 -131229.761 132602.38 -130991.666 132554.761 -130896.428 132507.142 -130848.809 132411.904 -130801.19 132316.666 -130801.19 132221.428 -130848.809 132173.809 -130896.428 132126.19 -130991.666 132078.571 -131182.142 132030.952 -131277.38 131983.333 -131325 131888.095 -131372.619 131792.857 -131372.619 131697.619 -131325 131650 -131277.38 131602.38 -131182.142 131602.38 -130944.047 131650 -130801.19 M 131602.38 -130515.476 131602.38 -129944.047 M 132602.38 -130229.761 131602.38 -130229.761 M 69927.38 -108161.904 69927.38 -108638.095 68927.38 -108638.095 M 69832.142 -107257.142 69879.761 -107304.761 69927.38 -107447.619 69927.38 -107542.857 69879.761 -107685.714 69784.523 -107780.952 69689.285 -107828.571 69498.809 -107876.19 69355.952 -107876.19 69165.476 -107828.571 69070.238 -107780.952 68975 -107685.714 68927.38 -107542.857 68927.38 -107447.619 68975 -107304.761 69022.619 -107257.142 M 69927.38 -106828.571 68927.38 -106828.571 68927.38 -106590.476 68975 -106447.619 69070.238 -106352.38 69165.476 -106304.761 69355.952 -106257.142 69498.809 -106257.142 69689.285 -106304.761 69784.523 -106352.38 69879.761 -106447.619 69927.38 -106590.476 69927.38 -106828.571 M 70022.619 -106066.666 70022.619 -105304.761 M 68927.38 -105209.523 68927.38 -104638.095 M 69927.38 -104923.809 68927.38 -104923.809 M 69403.571 -104304.761 69403.571 -103971.428 M 69927.38 -103828.571 69927.38 -104304.761 68927.38 -104304.761 68927.38 -103828.571 M 69879.761 -103447.619 69927.38 -103304.761 69927.38 -103066.666 69879.761 -102971.428 69832.142 -102923.809 69736.904 -102876.19 69641.666 -102876.19 69546.428 -102923.809 69498.809 -102971.428 69451.19 -103066.666 69403.571 -103257.142 69355.952 -103352.38 69308.333 -103400 69213.095 -103447.619 69117.857 -103447.619 69022.619 -103400 68975 -103352.38 68927.38 -103257.142 68927.38 -103019.047 68975 -102876.19 M 68927.38 -102590.476 68927.38 -102019.047 M 69927.38 -102304.761 68927.38 -102304.761 M 135102.38 -126000 135102.38 -126476.19 134102.38 -126476.19 M 135007.142 -125095.238 135054.761 -125142.857 135102.38 -125285.714 135102.38 -125380.952 135054.761 -125523.809 134959.523 -125619.047 134864.285 -125666.666 134673.809 -125714.285 134530.952 -125714.285 134340.476 -125666.666 134245.238 -125619.047 134150 -125523.809 134102.38 -125380.952 134102.38 -125285.714 134150 -125142.857 134197.619 -125095.238 M 135102.38 -124666.666 134102.38 -124666.666 134102.38 -124428.571 134150 -124285.714 134245.238 -124190.476 134340.476 -124142.857 134530.952 -124095.238 134673.809 -124095.238 134864.285 -124142.857 134959.523 -124190.476 135054.761 -124285.714 135102.38 -124428.571 135102.38 -124666.666 M 135197.619 -123904.761 135197.619 -123142.857 M 134102.38 -123047.619 135102.38 -122714.285 134102.38 -122380.952 M 135007.142 -121476.19 135054.761 -121523.809 135102.38 -121666.666 135102.38 -121761.904 135054.761 -121904.761 134959.523 -122000 134864.285 -122047.619 134673.809 -122095.238 134530.952 -122095.238 134340.476 -122047.619 134245.238 -122000 134150 -121904.761 134102.38 -121761.904 134102.38 -121666.666 134150 -121523.809 134197.619 -121476.19 M 135007.142 -120476.19 135054.761 -120523.809 135102.38 -120666.666 135102.38 -120761.904 135054.761 -120904.761 134959.523 -121000 134864.285 -121047.619 134673.809 -121095.238 134530.952 -121095.238 134340.476 -121047.619 134245.238 -121000 134150 -120904.761 134102.38 -120761.904 134102.38 -120666.666 134150 -120523.809 134197.619 -120476.19 M 137052.38 -84600 137052.38 -85076.19 136052.38 -85076.19 M 136957.142 -83695.238 137004.761 -83742.857 137052.38 -83885.714 137052.38 -83980.952 137004.761 -84123.809 136909.523 -84219.047 136814.285 -84266.666 136623.809 -84314.285 136480.952 -84314.285 136290.476 -84266.666 136195.238 -84219.047 136100 -84123.809 136052.38 -83980.952 136052.38 -83885.714 136100 -83742.857 136147.619 -83695.238 M 137052.38 -83266.666 136052.38 -83266.666 136052.38 -83028.571 136100 -82885.714 136195.238 -82790.476 136290.476 -82742.857 136480.952 -82695.238 136623.809 -82695.238 136814.285 -82742.857 136909.523 -82790.476 137004.761 -82885.714 137052.38 -83028.571 137052.38 -83266.666 M 137147.619 -82504.761 137147.619 -81742.857 M 136052.38 -81647.619 137052.38 -81314.285 136052.38 -80980.952 M 136957.142 -80076.19 137004.761 -80123.809 137052.38 -80266.666 137052.38 -80361.904 137004.761 -80504.761 136909.523 -80600 136814.285 -80647.619 136623.809 -80695.238 136480.952 -80695.238 136290.476 -80647.619 136195.238 -80600 136100 -80504.761 136052.38 -80361.904 136052.38 -80266.666 136100 -80123.809 136147.619 -80076.19 M 136957.142 -79076.19 137004.761 -79123.809 137052.38 -79266.666 137052.38 -79361.904 137004.761 -79504.761 136909.523 -79600 136814.285 -79647.619 136623.809 -79695.238 136480.952 -79695.238 136290.476 -79647.619 136195.238 -79600 136100 -79504.761 136052.38 -79361.904 136052.38 -79266.666 136100 -79123.809 136147.619 -79076.19 M 67327.38 -107475 67327.38 -107951.19 66327.38 -107951.19 M 67232.142 -106570.238 67279.761 -106617.857 67327.38 -106760.714 67327.38 -106855.952 67279.761 -106998.809 67184.523 -107094.047 67089.285 -107141.666 66898.809 -107189.285 66755.952 -107189.285 66565.476 -107141.666 66470.238 -107094.047 66375 -106998.809 66327.38 -106855.952 66327.38 -106760.714 66375 -106617.857 66422.619 -106570.238 M 67327.38 -106141.666 66327.38 -106141.666 66327.38 -105903.571 66375 -105760.714 66470.238 -105665.476 66565.476 -105617.857 66755.952 -105570.238 66898.809 -105570.238 67089.285 -105617.857 67184.523 -105665.476 67279.761 -105760.714 67327.38 -105903.571 67327.38 -106141.666 M 67422.619 -105379.761 67422.619 -104617.857 M 66327.38 -104522.619 67327.38 -104189.285 66327.38 -103855.952 M 67232.142 -102951.19 67279.761 -102998.809 67327.38 -103141.666 67327.38 -103236.904 67279.761 -103379.761 67184.523 -103475 67089.285 -103522.619 66898.809 -103570.238 66755.952 -103570.238 66565.476 -103522.619 66470.238 -103475 66375 -103379.761 66327.38 -103236.904 66327.38 -103141.666 66375 -102998.809 66422.619 -102951.19 M 67232.142 -101951.19 67279.761 -101998.809 67327.38 -102141.666 67327.38 -102236.904 67279.761 -102379.761 67184.523 -102475 67089.285 -102522.619 66898.809 -102570.238 66755.952 -102570.238 66565.476 -102522.619 66470.238 -102475 66375 -102379.761 66327.38 -102236.904 66327.38 -102141.666 66375 -101998.809 66422.619 -101951.19 M 70603.571 -61267.857 70651.19 -61125 70698.809 -61077.38 70794.047 -61029.761 70936.904 -61029.761 71032.142 -61077.38 71079.761 -61125 71127.38 -61220.238 71127.38 -61601.19 70127.38 -61601.19 70127.38 -61267.857 70175 -61172.619 70222.619 -61125 70317.857 -61077.38 70413.095 -61077.38 70508.333 -61125 70555.952 -61172.619 70603.571 -61267.857 70603.571 -61601.19 M 71127.38 -60125 71127.38 -60601.19 70127.38 -60601.19 M 71222.619 -60029.761 71222.619 -59267.857 M 70127.38 -59172.619 71127.38 -58839.285 70127.38 -58505.952 M 71032.142 -57601.19 71079.761 -57648.809 71127.38 -57791.666 71127.38 -57886.904 71079.761 -58029.761 70984.523 -58125 70889.285 -58172.619 70698.809 -58220.238 70555.952 -58220.238 70365.476 -58172.619 70270.238 -58125 70175 -58029.761 70127.38 -57886.904 70127.38 -57791.666 70175 -57648.809 70222.619 -57601.19 M 71032.142 -56601.19 71079.761 -56648.809 71127.38 -56791.666 71127.38 -56886.904 71079.761 -57029.761 70984.523 -57125 70889.285 -57172.619 70698.809 -57220.238 70555.952 -57220.238 70365.476 -57172.619 70270.238 -57125 70175 -57029.761 70127.38 -56886.904 70127.38 -56791.666 70175 -56648.809 70222.619 -56601.19 M 68578.571 -61582.142 68626.19 -61439.285 68673.809 -61391.666 68769.047 -61344.047 68911.904 -61344.047 69007.142 -61391.666 69054.761 -61439.285 69102.38 -61534.523 69102.38 -61915.476 68102.38 -61915.476 68102.38 -61582.142 68150 -61486.904 68197.619 -61439.285 68292.857 -61391.666 68388.095 -61391.666 68483.333 -61439.285 68530.952 -61486.904 68578.571 -61582.142 68578.571 -61915.476 M 69102.38 -60439.285 69102.38 -60915.476 68102.38 -60915.476 M 69197.619 -60344.047 69197.619 -59582.142 M 69102.38 -59344.047 68102.38 -59344.047 68102.38 -58963.095 68150 -58867.857 68197.619 -58820.238 68292.857 -58772.619 68435.714 -58772.619 68530.952 -58820.238 68578.571 -58867.857 68626.19 -58963.095 68626.19 -59344.047 M 68102.38 -58439.285 69102.38 -58201.19 68388.095 -58010.714 69102.38 -57820.238 68102.38 -57582.142 M 69102.38 -57201.19 68102.38 -57201.19 68816.666 -56867.857 68102.38 -56534.523 69102.38 -56534.523 M 66028.571 -60240.476 66076.19 -60097.619 66123.809 -60050 66219.047 -60002.38 66361.904 -60002.38 66457.142 -60050 66504.761 -60097.619 66552.38 -60192.857 66552.38 -60573.809 65552.38 -60573.809 65552.38 -60240.476 65600 -60145.238 65647.619 -60097.619 65742.857 -60050 65838.095 -60050 65933.333 -60097.619 65980.952 -60145.238 66028.571 -60240.476 66028.571 -60573.809 M 66552.38 -59097.619 66552.38 -59573.809 65552.38 -59573.809 M 66647.619 -59002.38 66647.619 -58240.476 M 66028.571 -58002.38 66028.571 -57669.047 M 66552.38 -57526.19 66552.38 -58002.38 65552.38 -58002.38 65552.38 -57526.19 M 66552.38 -57097.619 65552.38 -57097.619 66552.38 -56526.19 65552.38 -56526.19 M 63453.571 -61263.095 63501.19 -61120.238 63548.809 -61072.619 63644.047 -61025 63786.904 -61025 63882.142 -61072.619 63929.761 -61120.238 63977.38 -61215.476 63977.38 -61596.428 62977.38 -61596.428 62977.38 -61263.095 63025 -61167.857 63072.619 -61120.238 63167.857 -61072.619 63263.095 -61072.619 63358.333 -61120.238 63405.952 -61167.857 63453.571 -61263.095 63453.571 -61596.428 M 63977.38 -60120.238 63977.38 -60596.428 62977.38 -60596.428 M 64072.619 -60025 64072.619 -59263.095 M 63025 -58501.19 62977.38 -58596.428 62977.38 -58739.285 63025 -58882.142 63120.238 -58977.38 63215.476 -59025 63405.952 -59072.619 63548.809 -59072.619 63739.285 -59025 63834.523 -58977.38 63929.761 -58882.142 63977.38 -58739.285 63977.38 -58644.047 63929.761 -58501.19 63882.142 -58453.571 63548.809 -58453.571 63548.809 -58644.047 M 63977.38 -58025 62977.38 -58025 63977.38 -57453.571 62977.38 -57453.571 M 63977.38 -56977.38 62977.38 -56977.38 62977.38 -56739.285 63025 -56596.428 63120.238 -56501.19 63215.476 -56453.571 63405.952 -56405.952 63548.809 -56405.952 63739.285 -56453.571 63834.523 -56501.19 63929.761 -56596.428 63977.38 -56739.285 63977.38 -56977.38 M 61427.38 -62045.238 61427.38 -62521.428 60427.38 -62521.428 M 61332.142 -61140.476 61379.761 -61188.095 61427.38 -61330.952 61427.38 -61426.19 61379.761 -61569.047 61284.523 -61664.285 61189.285 -61711.904 60998.809 -61759.523 60855.952 -61759.523 60665.476 -61711.904 60570.238 -61664.285 60475 -61569.047 60427.38 -61426.19 60427.38 -61330.952 60475 -61188.095 60522.619 -61140.476 M 61427.38 -60711.904 60427.38 -60711.904 60427.38 -60473.809 60475 -60330.952 60570.238 -60235.714 60665.476 -60188.095 60855.952 -60140.476 60998.809 -60140.476 61189.285 -60188.095 61284.523 -60235.714 61379.761 -60330.952 61427.38 -60473.809 61427.38 -60711.904 M 61522.619 -59950 61522.619 -59188.095 M 60475 -58426.19 60427.38 -58521.428 60427.38 -58664.285 60475 -58807.142 60570.238 -58902.38 60665.476 -58950 60855.952 -58997.619 60998.809 -58997.619 61189.285 -58950 61284.523 -58902.38 61379.761 -58807.142 61427.38 -58664.285 61427.38 -58569.047 61379.761 -58426.19 61332.142 -58378.571 60998.809 -58378.571 60998.809 -58569.047 M 61427.38 -57950 60427.38 -57950 61427.38 -57378.571 60427.38 -57378.571 M 61427.38 -56902.38 60427.38 -56902.38 60427.38 -56664.285 60475 -56521.428 60570.238 -56426.19 60665.476 -56378.571 60855.952 -56330.952 60998.809 -56330.952 61189.285 -56378.571 61284.523 -56426.19 61379.761 -56521.428 61427.38 -56664.285 61427.38 -56902.38 M 58902.38 -62336.904 58902.38 -62813.095 57902.38 -62813.095 M 58807.142 -61432.142 58854.761 -61479.761 58902.38 -61622.619 58902.38 -61717.857 58854.761 -61860.714 58759.523 -61955.952 58664.285 -62003.571 58473.809 -62051.19 58330.952 -62051.19 58140.476 -62003.571 58045.238 -61955.952 57950 -61860.714 57902.38 -61717.857 57902.38 -61622.619 57950 -61479.761 57997.619 -61432.142 M 58902.38 -61003.571 57902.38 -61003.571 57902.38 -60765.476 57950 -60622.619 58045.238 -60527.38 58140.476 -60479.761 58330.952 -60432.142 58473.809 -60432.142 58664.285 -60479.761 58759.523 -60527.38 58854.761 -60622.619 58902.38 -60765.476 58902.38 -61003.571 M 58997.619 -60241.666 58997.619 -59479.761 M 57902.38 -59384.523 57902.38 -58813.095 M 58902.38 -59098.809 57902.38 -59098.809 M 58378.571 -58479.761 58378.571 -58146.428 M 58902.38 -58003.571 58902.38 -58479.761 57902.38 -58479.761 57902.38 -58003.571 M 58854.761 -57622.619 58902.38 -57479.761 58902.38 -57241.666 58854.761 -57146.428 58807.142 -57098.809 58711.904 -57051.19 58616.666 -57051.19 58521.428 -57098.809 58473.809 -57146.428 58426.19 -57241.666 58378.571 -57432.142 58330.952 -57527.38 58283.333 -57575 58188.095 -57622.619 58092.857 -57622.619 57997.619 -57575 57950 -57527.38 57902.38 -57432.142 57902.38 -57194.047 57950 -57051.19 M 57902.38 -56765.476 57902.38 -56194.047 M 58902.38 -56479.761 57902.38 -56479.761 M 56327.38 -61725 56327.38 -62201.19 55327.38 -62201.19 M 56232.142 -60820.238 56279.761 -60867.857 56327.38 -61010.714 56327.38 -61105.952 56279.761 -61248.809 56184.523 -61344.047 56089.285 -61391.666 55898.809 -61439.285 55755.952 -61439.285 55565.476 -61391.666 55470.238 -61344.047 55375 -61248.809 55327.38 -61105.952 55327.38 -61010.714 55375 -60867.857 55422.619 -60820.238 M 56327.38 -60391.666 55327.38 -60391.666 55327.38 -60153.571 55375 -60010.714 55470.238 -59915.476 55565.476 -59867.857 55755.952 -59820.238 55898.809 -59820.238 56089.285 -59867.857 56184.523 -59915.476 56279.761 -60010.714 56327.38 -60153.571 56327.38 -60391.666 M 56422.619 -59629.761 56422.619 -58867.857 M 55327.38 -58772.619 56327.38 -58439.285 55327.38 -58105.952 M 56232.142 -57201.19 56279.761 -57248.809 56327.38 -57391.666 56327.38 -57486.904 56279.761 -57629.761 56184.523 -57725 56089.285 -57772.619 55898.809 -57820.238 55755.952 -57820.238 55565.476 -57772.619 55470.238 -57725 55375 -57629.761 55327.38 -57486.904 55327.38 -57391.666 55375 -57248.809 55422.619 -57201.19 M 56232.142 -56201.19 56279.761 -56248.809 56327.38 -56391.666 56327.38 -56486.904 56279.761 -56629.761 56184.523 -56725 56089.285 -56772.619 55898.809 -56820.238 55755.952 -56820.238 55565.476 -56772.619 55470.238 -56725 55375 -56629.761 55327.38 -56486.904 55327.38 -56391.666 55375 -56248.809 55422.619 -56201.19" fill="none" stroke-width="150"/><path d="M 72550 -84050 72550 -81800 M 74100 -84050 72550 -84050 M 72550 -58550 72550 -60800 M 74100 -58550 72550 -58550 M 76600 -84050 76600 -58550 M 76600 -84050 76600 -84050 M 116325 -96150 116325 -96150 116325 -121650 M 118825 -121650 120375 -121650 120375 -119400 M 118825 -96150 120375 -96150 120375 -98400 M 68100 -130550 70350 -130550 M 68100 -132100 68100 -130550 M 93600 -130550 91350 -130550 M 93600 -132100 93600 -130550 M 68100 -134600 93600 -134600 M 68100 -134600 68100 -134600 M 109850 -59640 109850 -59640 109850 -85140 M 112350 -85140 113900 -85140 113900 -82890 M 112350 -59640 113900 -59640 113900 -61890" fill="none" stroke-width="100"/><path d="M 122822.38 -105733.333 123536.666 -105733.333 123679.523 -105780.952 123774.761 -105876.19 123822.38 -106019.047 123822.38 -106114.285 M 123822.38 -104733.333 123822.38 -105304.761 M 123822.38 -105019.047 122822.38 -105019.047 122965.238 -105114.285 123060.476 -105209.523 123108.095 -105304.761 M 66452.38 -75133.333 67166.666 -75133.333 67309.523 -75180.952 67404.761 -75276.19 67452.38 -75419.047 67452.38 -75514.285 M 66547.619 -74704.761 66500 -74657.142 66452.38 -74561.904 66452.38 -74323.809 66500 -74228.571 66547.619 -74180.952 66642.857 -74133.333 66738.095 -74133.333 66880.952 -74180.952 67452.38 -74752.38 67452.38 -74133.333 M 116292.38 -128603.333 117006.666 -128603.333 117149.523 -128650.952 117244.761 -128746.19 117292.38 -128889.047 117292.38 -128984.285 M 116292.38 -128222.38 116292.38 -127603.333 116673.333 -127936.666 116673.333 -127793.809 116720.952 -127698.571 116768.571 -127650.952 116863.809 -127603.333 117101.904 -127603.333 117197.142 -127650.952 117244.761 -127698.571 117292.38 -127793.809 117292.38 -128079.523 117244.761 -128174.761 117197.142 -128222.38 M 73112.38 -54943.333 73826.666 -54943.333 73969.523 -54990.952 74064.761 -55086.19 74112.38 -55229.047 74112.38 -55324.285 M 73445.714 -54038.571 74112.38 -54038.571 M 73064.761 -54276.666 73779.047 -54514.761 73779.047 -53895.714" fill="none" stroke-width="150"/><path d="M 74354.523 -71723.333 75261.666 -71723.333 75443.095 -71783.809 75564.047 -71904.761 75624.523 -72086.19 75624.523 -72207.142 M 74354.523 -70513.809 74354.523 -71118.571 74959.285 -71179.047 74898.809 -71118.571 74838.333 -70997.619 74838.333 -70695.238 74898.809 -70574.285 74959.285 -70513.809 75080.238 -70453.333 75382.619 -70453.333 75503.571 -70513.809 75564.047 -70574.285 75624.523 -70695.238 75624.523 -70997.619 75564.047 -71118.571 75503.571 -71179.047 M 117179.523 -109323.333 118086.666 -109323.333 118268.095 -109383.809 118389.047 -109504.761 118449.523 -109686.19 118449.523 -109807.142 M 117179.523 -108174.285 117179.523 -108416.19 117240 -108537.142 117300.476 -108597.619 117481.904 -108718.571 117723.809 -108779.047 118207.619 -108779.047 118328.571 -108718.571 118389.047 -108658.095 118449.523 -108537.142 118449.523 -108295.238 118389.047 -108174.285 118328.571 -108113.809 118207.619 -108053.333 117905.238 -108053.333 117784.285 -108113.809 117723.809 -108174.285 117663.333 -108295.238 117663.333 -108537.142 117723.809 -108658.095 117784.285 -108718.571 117905.238 -108779.047" fill="none" stroke-width="254"/><path d="M 66542.38 -118443.333 67256.666 -118443.333 67399.523 -118490.952 67494.761 -118586.19 67542.38 -118729.047 67542.38 -118824.285 M 66542.38 -118062.38 66542.38 -117395.714 67542.38 -117824.285 M 122862.38 -65103.333 123576.666 -65103.333 123719.523 -65150.952 123814.761 -65246.19 123862.38 -65389.047 123862.38 -65484.285 M 123290.952 -64484.285 123243.333 -64579.523 123195.714 -64627.142 123100.476 -64674.761 123052.857 -64674.761 122957.619 -64627.142 122910 -64579.523 122862.38 -64484.285 122862.38 -64293.809 122910 -64198.571 122957.619 -64150.952 123052.857 -64103.333 123100.476 -64103.333 123195.714 -64150.952 123243.333 -64198.571 123290.952 -64293.809 123290.952 -64484.285 123338.571 -64579.523 123386.19 -64627.142 123481.428 -64674.761 123671.904 -64674.761 123767.142 -64627.142 123814.761 -64579.523 123862.38 -64484.285 123862.38 -64293.809 123814.761 -64198.571 123767.142 -64150.952 123671.904 -64103.333 123481.428 -64103.333 123386.19 -64150.952 123338.571 -64198.571 123290.952 -64293.809 M 84082.38 -100758.333 84796.666 -100758.333 84939.523 -100805.952 85034.761 -100901.19 85082.38 -101044.047 85082.38 -101139.285 M 85082.38 -100234.523 85082.38 -100044.047 85034.761 -99948.809 84987.142 -99901.19 84844.285 -99805.952 84653.809 -99758.333 84272.857 -99758.333 84177.619 -99805.952 84130 -99853.571 84082.38 -99948.809 84082.38 -100139.285 84130 -100234.523 84177.619 -100282.142 84272.857 -100329.761 84510.952 -100329.761 84606.19 -100282.142 84653.809 -100234.523 84701.428 -100139.285 84701.428 -99948.809 84653.809 -99853.571 84606.19 -99805.952 84510.952 -99758.333 M 118197.38 -87509.523 118911.666 -87509.523 119054.523 -87557.142 119149.761 -87652.38 119197.38 -87795.238 119197.38 -87890.476 M 119197.38 -86509.523 119197.38 -87080.952 M 119197.38 -86795.238 118197.38 -86795.238 118340.238 -86890.476 118435.476 -86985.714 118483.095 -87080.952 M 118197.38 -85890.476 118197.38 -85795.238 118245 -85700 118292.619 -85652.38 118387.857 -85604.761 118578.333 -85557.142 118816.428 -85557.142 119006.904 -85604.761 119102.142 -85652.38 119149.761 -85700 119197.38 -85795.238 119197.38 -85890.476 119149.761 -85985.714 119102.142 -86033.333 119006.904 -86080.952 118816.428 -86128.571 118578.333 -86128.571 118387.857 -86080.952 118292.619 -86033.333 118245 -85985.714 118197.38 -85890.476" fill="none" stroke-width="150"/><path d="M 79821.904 -132354.523 79821.904 -133261.666 79761.428 -133443.095 79640.476 -133564.047 79459.047 -133624.523 79338.095 -133624.523 M 81091.904 -133624.523 80366.19 -133624.523 M 80729.047 -133624.523 80729.047 -132354.523 80608.095 -132535.952 80487.142 -132656.904 80366.19 -132717.38 M 82301.428 -133624.523 81575.714 -133624.523 M 81938.571 -133624.523 81938.571 -132354.523 81817.619 -132535.952 81696.666 -132656.904 81575.714 -132717.38 M 110704.523 -73418.095 111611.666 -73418.095 111793.095 -73478.571 111914.047 -73599.523 111974.523 -73780.952 111974.523 -73901.904 M 111974.523 -72148.095 111974.523 -72873.809 M 111974.523 -72510.952 110704.523 -72510.952 110885.952 -72631.904 111006.904 -72752.857 111067.38 -72873.809 M 110825.476 -71664.285 110765 -71603.809 110704.523 -71482.857 110704.523 -71180.476 110765 -71059.523 110825.476 -70999.047 110946.428 -70938.571 111067.38 -70938.571 111248.809 -70999.047 111974.523 -71724.761 111974.523 -70938.571" fill="none" stroke-width="254"/></g></svg>