<svg version="1.1" xmlns="http://www.w3.org/2000/svg" xmlns:xlink="http://www.w3.org/1999/xlink" stroke-linecap="round" stroke-linejoin="round" stroke-width="0" fill-rule="evenodd" width="90mm" height="90mm" viewBox="50000 -140000 90000 90000" id="PunhtCbnDWtg21GJo9gD"><g transform="translate(0,-190000) scale(1,-1)" fill="currentColor" stroke="currentColor"><path d="M 86700 -55000 A 1700 1700 0 0 1 83300 -55000 1700 1700 0 0 1 86700 -55000 M 121700 -55000 A 1700 1700 0 0 1 118300 -55000 1700 1700 0 0 1 121700 -55000 M 136700 -135000 A 1700 1700 0 0 1 133300 -135000 1700 1700 0 0 1 136700 -135000 M 56700 -135000 A 1700 1700 0 0 1 53300 -135000 1700 1700 0 0 1 56700 -135000 M 50000 -50000 50000 -140000 140000 -140000 140000 -50000 50000 -50000" fill="none" stroke-width="50"/></g></svg>