<svg version="1.1" xmlns="http://www.w3.org/2000/svg" xmlns:xlink="http://www.w3.org/1999/xlink" stroke-linecap="round" stroke-linejoin="round" stroke-width="0" fill-rule="evenodd" width="85.4116mm" height="75.3636mm" viewBox="52499.2 -129121.8 85411.6 75363.6" id="h2F14vf0_BnNgc-5UqeG"><defs><rect x="-1450.8" y="-700.8" width="2901.6" height="1401.6" rx="700.8" ry="700.8" id="h2F14vf0_BnNgc-5UqeG_pad-10"/><rect x="-1250.8" y="-700.8" width="2501.6" height="1401.6" rx="700.8" ry="700.8" id="h2F14vf0_BnNgc-5UqeG_pad-11"/><circle cx="0" cy="0" r="750.8" id="h2F14vf0_BnNgc-5UqeG_pad-12"/><circle cx="0" cy="0" r="851.8" id="h2F14vf0_BnNgc-5UqeG_pad-13"/></defs><g transform="translate(0,-182880) scale(1,-1)" fill="currentColor" stroke="currentColor"><use xlink:href="#h2F14vf0_BnNgc-5UqeG_pad-10" x="129440" y="-97150"/><use xlink:href="#h2F14vf0_BnNgc-5UqeG_pad-11" x="136220" y="-97150"/><use xlink:href="#h2F14vf0_BnNgc-5UqeG_pad-12" x="137120" y="-105400"/><use xlink:href="#h2F14vf0_BnNgc-5UqeG_pad-11" x="136220" y="-113650"/><use xlink:href="#h2F14vf0_BnNgc-5UqeG_pad-10" x="129440" y="-113650"/><use xlink:href="#h2F14vf0_BnNgc-5UqeG_pad-10" x="60930" y="-66550"/><use xlink:href="#h2F14vf0_BnNgc-5UqeG_pad-11" x="54150" y="-66550"/><use xlink:href="#h2F14vf0_BnNgc-5UqeG_pad-12" x="53250" y="-74800"/><use xlink:href="#h2F14vf0_BnNgc-5UqeG_pad-11" x="54150" y="-83050"/><use xlink:href="#h2F14vf0_BnNgc-5UqeG_pad-10" x="60930" y="-83050"/><use xlink:href="#h2F14vf0_BnNgc-5UqeG_pad-13" x="119380" y="-128270"/><use xlink:href="#h2F14vf0_BnNgc-5UqeG_pad-13" x="121920" y="-128270"/><use xlink:href="#h2F14vf0_BnNgc-5UqeG_pad-13" x="124460" y="-128270"/><use xlink:href="#h2F14vf0_BnNgc-5UqeG_pad-13" x="127000" y="-128270"/><use xlink:href="#h2F14vf0_BnNgc-5UqeG_pad-13" x="129540" y="-128270"/><use xlink:href="#h2F14vf0_BnNgc-5UqeG_pad-13" x="132080" y="-128270"/><use xlink:href="#h2F14vf0_BnNgc-5UqeG_pad-13" x="134620" y="-128270"/><use xlink:href="#h2F14vf0_BnNgc-5UqeG_pad-13" x="55880" y="-54610"/><use xlink:href="#h2F14vf0_BnNgc-5UqeG_pad-13" x="58420" y="-54610"/><use xlink:href="#h2F14vf0_BnNgc-5UqeG_pad-13" x="60960" y="-54610"/><use xlink:href="#h2F14vf0_BnNgc-5UqeG_pad-13" x="63500" y="-54610"/><use xlink:href="#h2F14vf0_BnNgc-5UqeG_pad-13" x="66040" y="-54610"/><use xlink:href="#h2F14vf0_BnNgc-5UqeG_pad-13" x="68580" y="-54610"/><use xlink:href="#h2F14vf0_BnNgc-5UqeG_pad-13" x="71120" y="-54610"/><use xlink:href="#h2F14vf0_BnNgc-5UqeG_pad-10" x="61020" y="-109860"/><use xlink:href="#h2F14vf0_BnNgc-5UqeG_pad-11" x="54240" y="-109860"/><use xlink:href="#h2F14vf0_BnNgc-5UqeG_pad-12" x="53340" y="-118110"/><use xlink:href="#h2F14vf0_BnNgc-5UqeG_pad-11" x="54240" y="-126360"/><use xlink:href="#h2F14vf0_BnNgc-5UqeG_pad-10" x="61020" y="-126360"/><use xlink:href="#h2F14vf0_BnNgc-5UqeG_pad-10" x="129480" y="-56520"/><use xlink:href="#h2F14vf0_BnNgc-5UqeG_pad-11" x="136260" y="-56520"/><use xlink:href="#h2F14vf0_BnNgc-5UqeG_pad-12" x="137160" y="-64770"/><use xlink:href="#h2F14vf0_BnNgc-5UqeG_pad-11" x="136260" y="-73020"/><use xlink:href="#h2F14vf0_BnNgc-5UqeG_pad-10" x="129480" y="-73020"/><use xlink:href="#h2F14vf0_BnNgc-5UqeG_pad-13" x="66850" y="-100425"/><use xlink:href="#h2F14vf0_BnNgc-5UqeG_pad-13" x="69390" y="-100425"/><use xlink:href="#h2F14vf0_BnNgc-5UqeG_pad-13" x="71930" y="-100425"/><use xlink:href="#h2F14vf0_BnNgc-5UqeG_pad-13" x="74470" y="-100425"/><use xlink:href="#h2F14vf0_BnNgc-5UqeG_pad-13" x="77010" y="-100425"/><use xlink:href="#h2F14vf0_BnNgc-5UqeG_pad-13" x="79550" y="-100425"/><use xlink:href="#h2F14vf0_BnNgc-5UqeG_pad-13" x="82090" y="-100425"/><use xlink:href="#h2F14vf0_BnNgc-5UqeG_pad-13" x="121285" y="-86700"/><use xlink:href="#h2F14vf0_BnNgc-5UqeG_pad-13" x="123825" y="-86700"/><use xlink:href="#h2F14vf0_BnNgc-5UqeG_pad-13" x="126365" y="-86700"/><use xlink:href="#h2F14vf0_BnNgc-5UqeG_pad-13" x="128905" y="-86700"/><use xlink:href="#h2F14vf0_BnNgc-5UqeG_pad-13" x="131445" y="-86700"/><use xlink:href="#h2F14vf0_BnNgc-5UqeG_pad-13" x="133985" y="-86700"/><use xlink:href="#h2F14vf0_BnNgc-5UqeG_pad-13" x="136525" y="-86700"/></g></svg>