<svg version="1.1" xmlns="http://www.w3.org/2000/svg" xmlns:xlink="http://www.w3.org/1999/xlink" stroke-linecap="round" stroke-linejoin="round" stroke-width="0" fill-rule="evenodd" width="3.3586in" height="3.1216999999999997in" viewBox="2068.95 -5251.6 3358.6 3121.7" id="lXPYmW4swZ8up7cHPX1z"><defs><circle cx="0" cy="0" r="7.5" id="lXPYmW4swZ8up7cHPX1z_pad-1"/><circle cx="0" cy="0" r="20.1" id="lXPYmW4swZ8up7cHPX1z_pad-3"/><circle cx="0" cy="0" r="27.55" id="lXPYmW4swZ8up7cHPX1z_pad-4"/></defs><g transform="translate(0,-7381.500000000001) scale(1,-1)" fill="currentColor" stroke="currentColor"><use xlink:href="#lXPYmW4swZ8up7cHPX1z_pad-1" x="2407.5" y="-4499"/><use xlink:href="#lXPYmW4swZ8up7cHPX1z_pad-1" x="2407.5" y="-4571.9"/><use xlink:href="#lXPYmW4swZ8up7cHPX1z_pad-1" x="2407.5" y="-4629.9"/><use xlink:href="#lXPYmW4swZ8up7cHPX1z_pad-1" x="2407.5" y="-4669.3"/><use xlink:href="#lXPYmW4swZ8up7cHPX1z_pad-1" x="2407.5" y="-4729.3"/><use xlink:href="#lXPYmW4swZ8up7cHPX1z_pad-1" x="2407.5" y="-4787.4"/><use xlink:href="#lXPYmW4swZ8up7cHPX1z_pad-1" x="2407.5" y="-4846.5"/><use xlink:href="#lXPYmW4swZ8up7cHPX1z_pad-1" x="2601.4" y="-4514.8"/><use xlink:href="#lXPYmW4swZ8up7cHPX1z_pad-1" x="2618.1" y="-4893.7"/><use xlink:href="#lXPYmW4swZ8up7cHPX1z_pad-1" x="2622" y="-2860.2"/><use xlink:href="#lXPYmW4swZ8up7cHPX1z_pad-1" x="2641.7" y="-3183.1"/><use xlink:href="#lXPYmW4swZ8up7cHPX1z_pad-1" x="2667.3" y="-4514.8"/><use xlink:href="#lXPYmW4swZ8up7cHPX1z_pad-1" x="2683.9" y="-2780.3"/><use xlink:href="#lXPYmW4swZ8up7cHPX1z_pad-1" x="2687" y="-2860.2"/><use xlink:href="#lXPYmW4swZ8up7cHPX1z_pad-1" x="2697.8" y="-4893.7"/><use xlink:href="#lXPYmW4swZ8up7cHPX1z_pad-1" x="2716.5" y="-3183.1"/><use xlink:href="#lXPYmW4swZ8up7cHPX1z_pad-1" x="2732.3" y="-2739"/><use xlink:href="#lXPYmW4swZ8up7cHPX1z_pad-1" x="2756.9" y="-4932.1"/><use xlink:href="#lXPYmW4swZ8up7cHPX1z_pad-1" x="2781.5" y="-3185"/><use xlink:href="#lXPYmW4swZ8up7cHPX1z_pad-1" x="2785.4" y="-5067.9"/><use xlink:href="#lXPYmW4swZ8up7cHPX1z_pad-1" x="2788.4" y="-4996.1"/><use xlink:href="#lXPYmW4swZ8up7cHPX1z_pad-1" x="2805.1" y="-4511.8"/><use xlink:href="#lXPYmW4swZ8up7cHPX1z_pad-1" x="2818.9" y="-5218.5"/><use xlink:href="#lXPYmW4swZ8up7cHPX1z_pad-1" x="2873" y="-4576.8"/><use xlink:href="#lXPYmW4swZ8up7cHPX1z_pad-1" x="2878" y="-5218.5"/><use xlink:href="#lXPYmW4swZ8up7cHPX1z_pad-1" x="2937" y="-5218.5"/><use xlink:href="#lXPYmW4swZ8up7cHPX1z_pad-1" x="2942.9" y="-4642.7"/><use xlink:href="#lXPYmW4swZ8up7cHPX1z_pad-1" x="2996.1" y="-5218.5"/><use xlink:href="#lXPYmW4swZ8up7cHPX1z_pad-1" x="3011.8" y="-4710.6"/><use xlink:href="#lXPYmW4swZ8up7cHPX1z_pad-1" x="3050" y="-2500"/><use xlink:href="#lXPYmW4swZ8up7cHPX1z_pad-1" x="3055.1" y="-5218.5"/><use xlink:href="#lXPYmW4swZ8up7cHPX1z_pad-1" x="3082.7" y="-4774.6"/><use xlink:href="#lXPYmW4swZ8up7cHPX1z_pad-1" x="3114.2" y="-5244.1"/><use xlink:href="#lXPYmW4swZ8up7cHPX1z_pad-1" x="3152.6" y="-4845.5"/><use xlink:href="#lXPYmW4swZ8up7cHPX1z_pad-1" x="3212.6" y="-5210.6"/><use xlink:href="#lXPYmW4swZ8up7cHPX1z_pad-1" x="4229.3" y="-3005.9"/><use xlink:href="#lXPYmW4swZ8up7cHPX1z_pad-1" x="4389.8" y="-2662.4"/><use xlink:href="#lXPYmW4swZ8up7cHPX1z_pad-1" x="4389.8" y="-2722.4"/><use xlink:href="#lXPYmW4swZ8up7cHPX1z_pad-1" x="4390.7" y="-2602.4"/><use xlink:href="#lXPYmW4swZ8up7cHPX1z_pad-1" x="4390.7" y="-2780.5"/><use xlink:href="#lXPYmW4swZ8up7cHPX1z_pad-1" x="4391.7" y="-2486.2"/><use xlink:href="#lXPYmW4swZ8up7cHPX1z_pad-1" x="4391.7" y="-2546.3"/><use xlink:href="#lXPYmW4swZ8up7cHPX1z_pad-1" x="4538.4" y="-2468.5"/><use xlink:href="#lXPYmW4swZ8up7cHPX1z_pad-1" x="4613.2" y="-2467.5"/><use xlink:href="#lXPYmW4swZ8up7cHPX1z_pad-1" x="4613.2" y="-2924.2"/><use xlink:href="#lXPYmW4swZ8up7cHPX1z_pad-1" x="4617.1" y="-2790.4"/><use xlink:href="#lXPYmW4swZ8up7cHPX1z_pad-1" x="4647.6" y="-4159.4"/><use xlink:href="#lXPYmW4swZ8up7cHPX1z_pad-1" x="4647.6" y="-4219.5"/><use xlink:href="#lXPYmW4swZ8up7cHPX1z_pad-1" x="4648.6" y="-3923.2"/><use xlink:href="#lXPYmW4swZ8up7cHPX1z_pad-1" x="4648.6" y="-3982.3"/><use xlink:href="#lXPYmW4swZ8up7cHPX1z_pad-1" x="4648.6" y="-4041.3"/><use xlink:href="#lXPYmW4swZ8up7cHPX1z_pad-1" x="4648.6" y="-4101.4"/><use xlink:href="#lXPYmW4swZ8up7cHPX1z_pad-1" x="4657.5" y="-4406.5"/><use xlink:href="#lXPYmW4swZ8up7cHPX1z_pad-1" x="4666.3" y="-2892.7"/><use xlink:href="#lXPYmW4swZ8up7cHPX1z_pad-1" x="4681.1" y="-2787.4"/><use xlink:href="#lXPYmW4swZ8up7cHPX1z_pad-1" x="4686" y="-2452.8"/><use xlink:href="#lXPYmW4swZ8up7cHPX1z_pad-1" x="4727.4" y="-2742.1"/><use xlink:href="#lXPYmW4swZ8up7cHPX1z_pad-1" x="4728.3" y="-2406.5"/><use xlink:href="#lXPYmW4swZ8up7cHPX1z_pad-1" x="4775.6" y="-2695.9"/><use xlink:href="#lXPYmW4swZ8up7cHPX1z_pad-1" x="4776.6" y="-2357.3"/><use xlink:href="#lXPYmW4swZ8up7cHPX1z_pad-1" x="4791.3" y="-3912.4"/><use xlink:href="#lXPYmW4swZ8up7cHPX1z_pad-1" x="4827.8" y="-2312"/><use xlink:href="#lXPYmW4swZ8up7cHPX1z_pad-1" x="4836.6" y="-2673.2"/><use xlink:href="#lXPYmW4swZ8up7cHPX1z_pad-1" x="4843.5" y="-4169.3"/><use xlink:href="#lXPYmW4swZ8up7cHPX1z_pad-1" x="4845.5" y="-3911.4"/><use xlink:href="#lXPYmW4swZ8up7cHPX1z_pad-1" x="4887.8" y="-4275.6"/><use xlink:href="#lXPYmW4swZ8up7cHPX1z_pad-1" x="4890.7" y="-2312"/><use xlink:href="#lXPYmW4swZ8up7cHPX1z_pad-1" x="4891.7" y="-2672.2"/><use xlink:href="#lXPYmW4swZ8up7cHPX1z_pad-1" x="4903.5" y="-4179.1"/><use xlink:href="#lXPYmW4swZ8up7cHPX1z_pad-1" x="4907.5" y="-3910.4"/><use xlink:href="#lXPYmW4swZ8up7cHPX1z_pad-1" x="5117.1" y="-4011.8"/><use xlink:href="#lXPYmW4swZ8up7cHPX1z_pad-1" x="5117.1" y="-4070.9"/><use xlink:href="#lXPYmW4swZ8up7cHPX1z_pad-1" x="5117.1" y="-4129.9"/><use xlink:href="#lXPYmW4swZ8up7cHPX1z_pad-1" x="5117.1" y="-4169.3"/><use xlink:href="#lXPYmW4swZ8up7cHPX1z_pad-1" x="5117.1" y="-4228.3"/><use xlink:href="#lXPYmW4swZ8up7cHPX1z_pad-1" x="5117.1" y="-4287.4"/><use xlink:href="#lXPYmW4swZ8up7cHPX1z_pad-1" x="5118.1" y="-3951.8"/><use xlink:href="#lXPYmW4swZ8up7cHPX1z_pad-1" x="5127" y="-2471.5"/><use xlink:href="#lXPYmW4swZ8up7cHPX1z_pad-1" x="5127" y="-2529.5"/><use xlink:href="#lXPYmW4swZ8up7cHPX1z_pad-1" x="5127" y="-2569.9"/><use xlink:href="#lXPYmW4swZ8up7cHPX1z_pad-1" x="5127" y="-2628.9"/><use xlink:href="#lXPYmW4swZ8up7cHPX1z_pad-1" x="5127" y="-2688"/><use xlink:href="#lXPYmW4swZ8up7cHPX1z_pad-1" x="5128" y="-2353.3"/><use xlink:href="#lXPYmW4swZ8up7cHPX1z_pad-1" x="5128" y="-2411.4"/><use xlink:href="#lXPYmW4swZ8up7cHPX1z_pad-3" x="4775" y="-3413.4"/><use xlink:href="#lXPYmW4swZ8up7cHPX1z_pad-3" x="4875" y="-3413.4"/><use xlink:href="#lXPYmW4swZ8up7cHPX1z_pad-3" x="4975" y="-3413.4"/><use xlink:href="#lXPYmW4swZ8up7cHPX1z_pad-3" x="5075" y="-3413.4"/><use xlink:href="#lXPYmW4swZ8up7cHPX1z_pad-3" x="5175" y="-3413.4"/><use xlink:href="#lXPYmW4swZ8up7cHPX1z_pad-3" x="5275" y="-3413.4"/><use xlink:href="#lXPYmW4swZ8up7cHPX1z_pad-3" x="5375" y="-3413.4"/><use xlink:href="#lXPYmW4swZ8up7cHPX1z_pad-3" x="4700" y="-5050"/><use xlink:href="#lXPYmW4swZ8up7cHPX1z_pad-3" x="4800" y="-5050"/><use xlink:href="#lXPYmW4swZ8up7cHPX1z_pad-3" x="4900" y="-5050"/><use xlink:href="#lXPYmW4swZ8up7cHPX1z_pad-3" x="5000" y="-5050"/><use xlink:href="#lXPYmW4swZ8up7cHPX1z_pad-3" x="5100" y="-5050"/><use xlink:href="#lXPYmW4swZ8up7cHPX1z_pad-3" x="5200" y="-5050"/><use xlink:href="#lXPYmW4swZ8up7cHPX1z_pad-3" x="5300" y="-5050"/><use xlink:href="#lXPYmW4swZ8up7cHPX1z_pad-3" x="2631.9" y="-3953.7"/><use xlink:href="#lXPYmW4swZ8up7cHPX1z_pad-3" x="2731.9" y="-3953.7"/><use xlink:href="#lXPYmW4swZ8up7cHPX1z_pad-3" x="2831.9" y="-3953.7"/><use xlink:href="#lXPYmW4swZ8up7cHPX1z_pad-3" x="2931.9" y="-3953.7"/><use xlink:href="#lXPYmW4swZ8up7cHPX1z_pad-3" x="3031.9" y="-3953.7"/><use xlink:href="#lXPYmW4swZ8up7cHPX1z_pad-3" x="3131.9" y="-3953.7"/><use xlink:href="#lXPYmW4swZ8up7cHPX1z_pad-3" x="3231.9" y="-3953.7"/><use xlink:href="#lXPYmW4swZ8up7cHPX1z_pad-3" x="2200" y="-2150"/><use xlink:href="#lXPYmW4swZ8up7cHPX1z_pad-3" x="2300" y="-2150"/><use xlink:href="#lXPYmW4swZ8up7cHPX1z_pad-3" x="2400" y="-2150"/><use xlink:href="#lXPYmW4swZ8up7cHPX1z_pad-3" x="2500" y="-2150"/><use xlink:href="#lXPYmW4swZ8up7cHPX1z_pad-3" x="2600" y="-2150"/><use xlink:href="#lXPYmW4swZ8up7cHPX1z_pad-3" x="2700" y="-2150"/><use xlink:href="#lXPYmW4swZ8up7cHPX1z_pad-3" x="2800" y="-2150"/><use xlink:href="#lXPYmW4swZ8up7cHPX1z_pad-4" x="5400" y="-2550"/><use xlink:href="#lXPYmW4swZ8up7cHPX1z_pad-4" x="2100" y="-4650"/><use xlink:href="#lXPYmW4swZ8up7cHPX1z_pad-4" x="5398.4" y="-4149.6"/><use xlink:href="#lXPYmW4swZ8up7cHPX1z_pad-4" x="2096.5" y="-2944.9"/><path d="M 5068.1 -2225.2 5127.2 -2225.2 M 5068.1 -2874.8 5127.2 -2874.8 M 5342.9 -2225.2 5386.2 -2225.2 M 5342.9 -2874.8 5386.2 -2874.8 M 2157.1 -4325.2 2113.8 -4325.2 M 2157.1 -4974.8 2113.8 -4974.8 M 2431.9 -4325.2 2372.8 -4325.2 M 2431.9 -4974.8 2372.8 -4974.8 M 5066.5 -3824.8 5125.6 -3824.8 M 5066.5 -4474.4 5125.6 -4474.4 M 5341.3 -3824.8 5384.6 -3824.8 M 5341.3 -4474.4 5384.6 -4474.4 M 2153.5 -2620.1 2110.2 -2620.1 M 2153.5 -3269.7 2110.2 -3269.7 M 2428.3 -2620.1 2369.3 -2620.1 M 2428.3 -3269.7 2369.3 -3269.7" fill="none" stroke-width="27.6"/></g></svg>