<svg version="1.1" xmlns="http://www.w3.org/2000/svg" xmlns:xlink="http://www.w3.org/1999/xlink" stroke-linecap="round" stroke-linejoin="round" stroke-width="0" fill-rule="evenodd" width="85.4116mm" height="80.3926mm" viewBox="52499.2 -134150.8 85411.6 80392.6" id="ngt7jnzf5lPuprJ0hidU"><defs><rect x="-1250.8" y="-190.8" width="2501.6" height="381.6" id="ngt7jnzf5lPuprJ0hidU_pad-10"/><rect x="-1450.8" y="-700.8" width="2901.6" height="1401.6" rx="700.8" ry="700.8" id="ngt7jnzf5lPuprJ0hidU_pad-11"/><rect x="-1250.8" y="-700.8" width="2501.6" height="1401.6" rx="700.8" ry="700.8" id="ngt7jnzf5lPuprJ0hidU_pad-12"/><circle cx="0" cy="0" r="750.8" id="ngt7jnzf5lPuprJ0hidU_pad-13"/><circle cx="0" cy="0" r="851.8" id="ngt7jnzf5lPuprJ0hidU_pad-14"/><rect x="-700.8" y="-1050.8" width="1401.6" height="2101.6" id="ngt7jnzf5lPuprJ0hidU_pad-15"/><rect x="-550.8" y="-200.8" width="1101.6" height="401.6" id="ngt7jnzf5lPuprJ0hidU_pad-16"/><rect x="-1050.8" y="-700.8" width="2101.6" height="1401.6" id="ngt7jnzf5lPuprJ0hidU_pad-17"/><rect x="-200.8" y="-550.8" width="401.6" height="1101.6" id="ngt7jnzf5lPuprJ0hidU_pad-18"/></defs><g transform="translate(0,-187908.99999999997) scale(1,-1)" fill="currentColor" stroke="currentColor"><use xlink:href="#ngt7jnzf5lPuprJ0hidU_pad-10" x="126840" y="-105400"/><use xlink:href="#ngt7jnzf5lPuprJ0hidU_pad-11" x="129440" y="-97150"/><use xlink:href="#ngt7jnzf5lPuprJ0hidU_pad-12" x="136220" y="-97150"/><use xlink:href="#ngt7jnzf5lPuprJ0hidU_pad-13" x="137120" y="-105400"/><use xlink:href="#ngt7jnzf5lPuprJ0hidU_pad-12" x="136220" y="-113650"/><use xlink:href="#ngt7jnzf5lPuprJ0hidU_pad-11" x="129440" y="-113650"/><use xlink:href="#ngt7jnzf5lPuprJ0hidU_pad-10" x="126840" y="-104900"/><use xlink:href="#ngt7jnzf5lPuprJ0hidU_pad-10" x="126840" y="-104400"/><use xlink:href="#ngt7jnzf5lPuprJ0hidU_pad-10" x="126840" y="-103900"/><use xlink:href="#ngt7jnzf5lPuprJ0hidU_pad-10" x="126840" y="-103400"/><use xlink:href="#ngt7jnzf5lPuprJ0hidU_pad-10" x="126840" y="-102900"/><use xlink:href="#ngt7jnzf5lPuprJ0hidU_pad-10" x="126840" y="-102400"/><use xlink:href="#ngt7jnzf5lPuprJ0hidU_pad-10" x="126840" y="-105900"/><use xlink:href="#ngt7jnzf5lPuprJ0hidU_pad-10" x="126840" y="-106400"/><use xlink:href="#ngt7jnzf5lPuprJ0hidU_pad-10" x="126840" y="-106900"/><use xlink:href="#ngt7jnzf5lPuprJ0hidU_pad-10" x="126840" y="-107400"/><use xlink:href="#ngt7jnzf5lPuprJ0hidU_pad-10" x="126840" y="-107900"/><use xlink:href="#ngt7jnzf5lPuprJ0hidU_pad-10" x="126840" y="-108400"/><use xlink:href="#ngt7jnzf5lPuprJ0hidU_pad-10" x="126840" y="-108900"/><use xlink:href="#ngt7jnzf5lPuprJ0hidU_pad-10" x="126840" y="-109400"/><use xlink:href="#ngt7jnzf5lPuprJ0hidU_pad-10" x="126840" y="-101900"/><use xlink:href="#ngt7jnzf5lPuprJ0hidU_pad-10" x="126840" y="-101400"/><use xlink:href="#ngt7jnzf5lPuprJ0hidU_pad-10" x="126840" y="-100900"/><use xlink:href="#ngt7jnzf5lPuprJ0hidU_pad-10" x="126840" y="-100400"/><use xlink:href="#ngt7jnzf5lPuprJ0hidU_pad-10" x="126840" y="-99900"/><use xlink:href="#ngt7jnzf5lPuprJ0hidU_pad-10" x="63530" y="-80300"/><use xlink:href="#ngt7jnzf5lPuprJ0hidU_pad-10" x="63530" y="-79800"/><use xlink:href="#ngt7jnzf5lPuprJ0hidU_pad-10" x="63530" y="-79300"/><use xlink:href="#ngt7jnzf5lPuprJ0hidU_pad-10" x="63530" y="-78800"/><use xlink:href="#ngt7jnzf5lPuprJ0hidU_pad-10" x="63530" y="-78300"/><use xlink:href="#ngt7jnzf5lPuprJ0hidU_pad-10" x="63530" y="-70800"/><use xlink:href="#ngt7jnzf5lPuprJ0hidU_pad-10" x="63530" y="-71300"/><use xlink:href="#ngt7jnzf5lPuprJ0hidU_pad-10" x="63530" y="-71800"/><use xlink:href="#ngt7jnzf5lPuprJ0hidU_pad-10" x="63530" y="-72300"/><use xlink:href="#ngt7jnzf5lPuprJ0hidU_pad-10" x="63530" y="-72800"/><use xlink:href="#ngt7jnzf5lPuprJ0hidU_pad-10" x="63530" y="-73300"/><use xlink:href="#ngt7jnzf5lPuprJ0hidU_pad-10" x="63530" y="-73800"/><use xlink:href="#ngt7jnzf5lPuprJ0hidU_pad-10" x="63530" y="-74300"/><use xlink:href="#ngt7jnzf5lPuprJ0hidU_pad-10" x="63530" y="-77800"/><use xlink:href="#ngt7jnzf5lPuprJ0hidU_pad-10" x="63530" y="-77300"/><use xlink:href="#ngt7jnzf5lPuprJ0hidU_pad-10" x="63530" y="-76800"/><use xlink:href="#ngt7jnzf5lPuprJ0hidU_pad-10" x="63530" y="-76300"/><use xlink:href="#ngt7jnzf5lPuprJ0hidU_pad-10" x="63530" y="-75800"/><use xlink:href="#ngt7jnzf5lPuprJ0hidU_pad-10" x="63530" y="-75300"/><use xlink:href="#ngt7jnzf5lPuprJ0hidU_pad-11" x="60930" y="-66550"/><use xlink:href="#ngt7jnzf5lPuprJ0hidU_pad-12" x="54150" y="-66550"/><use xlink:href="#ngt7jnzf5lPuprJ0hidU_pad-13" x="53250" y="-74800"/><use xlink:href="#ngt7jnzf5lPuprJ0hidU_pad-12" x="54150" y="-83050"/><use xlink:href="#ngt7jnzf5lPuprJ0hidU_pad-11" x="60930" y="-83050"/><use xlink:href="#ngt7jnzf5lPuprJ0hidU_pad-10" x="63530" y="-74800"/><use xlink:href="#ngt7jnzf5lPuprJ0hidU_pad-14" x="119380" y="-128270"/><use xlink:href="#ngt7jnzf5lPuprJ0hidU_pad-14" x="121920" y="-128270"/><use xlink:href="#ngt7jnzf5lPuprJ0hidU_pad-14" x="124460" y="-128270"/><use xlink:href="#ngt7jnzf5lPuprJ0hidU_pad-14" x="127000" y="-128270"/><use xlink:href="#ngt7jnzf5lPuprJ0hidU_pad-14" x="129540" y="-128270"/><use xlink:href="#ngt7jnzf5lPuprJ0hidU_pad-14" x="132080" y="-128270"/><use xlink:href="#ngt7jnzf5lPuprJ0hidU_pad-14" x="134620" y="-128270"/><use xlink:href="#ngt7jnzf5lPuprJ0hidU_pad-14" x="55880" y="-54610"/><use xlink:href="#ngt7jnzf5lPuprJ0hidU_pad-14" x="58420" y="-54610"/><use xlink:href="#ngt7jnzf5lPuprJ0hidU_pad-14" x="60960" y="-54610"/><use xlink:href="#ngt7jnzf5lPuprJ0hidU_pad-14" x="63500" y="-54610"/><use xlink:href="#ngt7jnzf5lPuprJ0hidU_pad-14" x="66040" y="-54610"/><use xlink:href="#ngt7jnzf5lPuprJ0hidU_pad-14" x="68580" y="-54610"/><use xlink:href="#ngt7jnzf5lPuprJ0hidU_pad-14" x="71120" y="-54610"/><use xlink:href="#ngt7jnzf5lPuprJ0hidU_pad-15" x="75450" y="-59250"/><use xlink:href="#ngt7jnzf5lPuprJ0hidU_pad-15" x="75450" y="-83350"/><use xlink:href="#ngt7jnzf5lPuprJ0hidU_pad-16" x="72750" y="-61550"/><use xlink:href="#ngt7jnzf5lPuprJ0hidU_pad-16" x="72750" y="-62050"/><use xlink:href="#ngt7jnzf5lPuprJ0hidU_pad-16" x="72750" y="-62550"/><use xlink:href="#ngt7jnzf5lPuprJ0hidU_pad-16" x="72750" y="-63050"/><use xlink:href="#ngt7jnzf5lPuprJ0hidU_pad-16" x="72750" y="-63550"/><use xlink:href="#ngt7jnzf5lPuprJ0hidU_pad-16" x="72750" y="-64050"/><use xlink:href="#ngt7jnzf5lPuprJ0hidU_pad-16" x="72750" y="-64550"/><use xlink:href="#ngt7jnzf5lPuprJ0hidU_pad-16" x="72750" y="-65050"/><use xlink:href="#ngt7jnzf5lPuprJ0hidU_pad-16" x="72750" y="-65550"/><use xlink:href="#ngt7jnzf5lPuprJ0hidU_pad-16" x="72750" y="-66050"/><use xlink:href="#ngt7jnzf5lPuprJ0hidU_pad-16" x="72750" y="-66550"/><use xlink:href="#ngt7jnzf5lPuprJ0hidU_pad-16" x="72750" y="-67050"/><use xlink:href="#ngt7jnzf5lPuprJ0hidU_pad-16" x="72750" y="-67550"/><use xlink:href="#ngt7jnzf5lPuprJ0hidU_pad-16" x="72750" y="-68050"/><use xlink:href="#ngt7jnzf5lPuprJ0hidU_pad-16" x="72750" y="-68550"/><use xlink:href="#ngt7jnzf5lPuprJ0hidU_pad-16" x="72750" y="-69050"/><use xlink:href="#ngt7jnzf5lPuprJ0hidU_pad-16" x="72750" y="-69550"/><use xlink:href="#ngt7jnzf5lPuprJ0hidU_pad-16" x="72750" y="-70050"/><use xlink:href="#ngt7jnzf5lPuprJ0hidU_pad-16" x="72750" y="-70550"/><use xlink:href="#ngt7jnzf5lPuprJ0hidU_pad-16" x="72750" y="-71050"/><use xlink:href="#ngt7jnzf5lPuprJ0hidU_pad-16" x="72750" y="-71550"/><use xlink:href="#ngt7jnzf5lPuprJ0hidU_pad-16" x="72750" y="-72050"/><use xlink:href="#ngt7jnzf5lPuprJ0hidU_pad-16" x="72750" y="-72550"/><use xlink:href="#ngt7jnzf5lPuprJ0hidU_pad-16" x="72750" y="-73050"/><use xlink:href="#ngt7jnzf5lPuprJ0hidU_pad-16" x="72750" y="-73550"/><use xlink:href="#ngt7jnzf5lPuprJ0hidU_pad-16" x="72750" y="-74050"/><use xlink:href="#ngt7jnzf5lPuprJ0hidU_pad-16" x="72750" y="-74550"/><use xlink:href="#ngt7jnzf5lPuprJ0hidU_pad-16" x="72750" y="-75050"/><use xlink:href="#ngt7jnzf5lPuprJ0hidU_pad-16" x="72750" y="-75550"/><use xlink:href="#ngt7jnzf5lPuprJ0hidU_pad-16" x="72750" y="-76050"/><use xlink:href="#ngt7jnzf5lPuprJ0hidU_pad-16" x="72750" y="-76550"/><use xlink:href="#ngt7jnzf5lPuprJ0hidU_pad-16" x="72750" y="-77050"/><use xlink:href="#ngt7jnzf5lPuprJ0hidU_pad-16" x="72750" y="-77550"/><use xlink:href="#ngt7jnzf5lPuprJ0hidU_pad-16" x="72750" y="-78050"/><use xlink:href="#ngt7jnzf5lPuprJ0hidU_pad-16" x="72750" y="-78550"/><use xlink:href="#ngt7jnzf5lPuprJ0hidU_pad-16" x="72750" y="-79050"/><use xlink:href="#ngt7jnzf5lPuprJ0hidU_pad-16" x="72750" y="-79550"/><use xlink:href="#ngt7jnzf5lPuprJ0hidU_pad-16" x="72750" y="-80050"/><use xlink:href="#ngt7jnzf5lPuprJ0hidU_pad-16" x="72750" y="-80550"/><use xlink:href="#ngt7jnzf5lPuprJ0hidU_pad-16" x="72750" y="-81050"/><use xlink:href="#ngt7jnzf5lPuprJ0hidU_pad-16" x="120175" y="-99150"/><use xlink:href="#ngt7jnzf5lPuprJ0hidU_pad-16" x="120175" y="-99650"/><use xlink:href="#ngt7jnzf5lPuprJ0hidU_pad-16" x="120175" y="-100150"/><use xlink:href="#ngt7jnzf5lPuprJ0hidU_pad-16" x="120175" y="-100650"/><use xlink:href="#ngt7jnzf5lPuprJ0hidU_pad-16" x="120175" y="-101150"/><use xlink:href="#ngt7jnzf5lPuprJ0hidU_pad-16" x="120175" y="-101650"/><use xlink:href="#ngt7jnzf5lPuprJ0hidU_pad-16" x="120175" y="-102150"/><use xlink:href="#ngt7jnzf5lPuprJ0hidU_pad-16" x="120175" y="-102650"/><use xlink:href="#ngt7jnzf5lPuprJ0hidU_pad-16" x="120175" y="-103150"/><use xlink:href="#ngt7jnzf5lPuprJ0hidU_pad-16" x="120175" y="-103650"/><use xlink:href="#ngt7jnzf5lPuprJ0hidU_pad-16" x="120175" y="-104150"/><use xlink:href="#ngt7jnzf5lPuprJ0hidU_pad-16" x="120175" y="-104650"/><use xlink:href="#ngt7jnzf5lPuprJ0hidU_pad-16" x="120175" y="-105150"/><use xlink:href="#ngt7jnzf5lPuprJ0hidU_pad-16" x="120175" y="-105650"/><use xlink:href="#ngt7jnzf5lPuprJ0hidU_pad-16" x="120175" y="-106150"/><use xlink:href="#ngt7jnzf5lPuprJ0hidU_pad-16" x="120175" y="-106650"/><use xlink:href="#ngt7jnzf5lPuprJ0hidU_pad-16" x="120175" y="-107150"/><use xlink:href="#ngt7jnzf5lPuprJ0hidU_pad-16" x="120175" y="-107650"/><use xlink:href="#ngt7jnzf5lPuprJ0hidU_pad-16" x="120175" y="-108150"/><use xlink:href="#ngt7jnzf5lPuprJ0hidU_pad-16" x="120175" y="-108650"/><use xlink:href="#ngt7jnzf5lPuprJ0hidU_pad-16" x="120175" y="-109150"/><use xlink:href="#ngt7jnzf5lPuprJ0hidU_pad-16" x="120175" y="-109650"/><use xlink:href="#ngt7jnzf5lPuprJ0hidU_pad-16" x="120175" y="-110150"/><use xlink:href="#ngt7jnzf5lPuprJ0hidU_pad-16" x="120175" y="-110650"/><use xlink:href="#ngt7jnzf5lPuprJ0hidU_pad-16" x="120175" y="-111150"/><use xlink:href="#ngt7jnzf5lPuprJ0hidU_pad-16" x="120175" y="-111650"/><use xlink:href="#ngt7jnzf5lPuprJ0hidU_pad-16" x="120175" y="-112150"/><use xlink:href="#ngt7jnzf5lPuprJ0hidU_pad-16" x="120175" y="-112650"/><use xlink:href="#ngt7jnzf5lPuprJ0hidU_pad-16" x="120175" y="-113150"/><use xlink:href="#ngt7jnzf5lPuprJ0hidU_pad-16" x="120175" y="-113650"/><use xlink:href="#ngt7jnzf5lPuprJ0hidU_pad-16" x="120175" y="-114150"/><use xlink:href="#ngt7jnzf5lPuprJ0hidU_pad-16" x="120175" y="-114650"/><use xlink:href="#ngt7jnzf5lPuprJ0hidU_pad-16" x="120175" y="-115150"/><use xlink:href="#ngt7jnzf5lPuprJ0hidU_pad-16" x="120175" y="-115650"/><use xlink:href="#ngt7jnzf5lPuprJ0hidU_pad-16" x="120175" y="-116150"/><use xlink:href="#ngt7jnzf5lPuprJ0hidU_pad-16" x="120175" y="-116650"/><use xlink:href="#ngt7jnzf5lPuprJ0hidU_pad-16" x="120175" y="-117150"/><use xlink:href="#ngt7jnzf5lPuprJ0hidU_pad-16" x="120175" y="-117650"/><use xlink:href="#ngt7jnzf5lPuprJ0hidU_pad-16" x="120175" y="-118150"/><use xlink:href="#ngt7jnzf5lPuprJ0hidU_pad-16" x="120175" y="-118650"/><use xlink:href="#ngt7jnzf5lPuprJ0hidU_pad-15" x="117475" y="-96850"/><use xlink:href="#ngt7jnzf5lPuprJ0hidU_pad-15" x="117475" y="-120950"/><use xlink:href="#ngt7jnzf5lPuprJ0hidU_pad-10" x="63620" y="-123610"/><use xlink:href="#ngt7jnzf5lPuprJ0hidU_pad-10" x="63620" y="-123110"/><use xlink:href="#ngt7jnzf5lPuprJ0hidU_pad-10" x="63620" y="-122610"/><use xlink:href="#ngt7jnzf5lPuprJ0hidU_pad-10" x="63620" y="-122110"/><use xlink:href="#ngt7jnzf5lPuprJ0hidU_pad-10" x="63620" y="-121610"/><use xlink:href="#ngt7jnzf5lPuprJ0hidU_pad-10" x="63620" y="-114110"/><use xlink:href="#ngt7jnzf5lPuprJ0hidU_pad-10" x="63620" y="-114610"/><use xlink:href="#ngt7jnzf5lPuprJ0hidU_pad-10" x="63620" y="-115110"/><use xlink:href="#ngt7jnzf5lPuprJ0hidU_pad-10" x="63620" y="-115610"/><use xlink:href="#ngt7jnzf5lPuprJ0hidU_pad-10" x="63620" y="-116110"/><use xlink:href="#ngt7jnzf5lPuprJ0hidU_pad-10" x="63620" y="-116610"/><use xlink:href="#ngt7jnzf5lPuprJ0hidU_pad-10" x="63620" y="-117110"/><use xlink:href="#ngt7jnzf5lPuprJ0hidU_pad-10" x="63620" y="-117610"/><use xlink:href="#ngt7jnzf5lPuprJ0hidU_pad-10" x="63620" y="-121110"/><use xlink:href="#ngt7jnzf5lPuprJ0hidU_pad-10" x="63620" y="-120610"/><use xlink:href="#ngt7jnzf5lPuprJ0hidU_pad-10" x="63620" y="-120110"/><use xlink:href="#ngt7jnzf5lPuprJ0hidU_pad-10" x="63620" y="-119610"/><use xlink:href="#ngt7jnzf5lPuprJ0hidU_pad-10" x="63620" y="-119110"/><use xlink:href="#ngt7jnzf5lPuprJ0hidU_pad-10" x="63620" y="-118610"/><use xlink:href="#ngt7jnzf5lPuprJ0hidU_pad-11" x="61020" y="-109860"/><use xlink:href="#ngt7jnzf5lPuprJ0hidU_pad-12" x="54240" y="-109860"/><use xlink:href="#ngt7jnzf5lPuprJ0hidU_pad-13" x="53340" y="-118110"/><use xlink:href="#ngt7jnzf5lPuprJ0hidU_pad-12" x="54240" y="-126360"/><use xlink:href="#ngt7jnzf5lPuprJ0hidU_pad-11" x="61020" y="-126360"/><use xlink:href="#ngt7jnzf5lPuprJ0hidU_pad-10" x="63620" y="-118110"/><use xlink:href="#ngt7jnzf5lPuprJ0hidU_pad-10" x="126880" y="-64770"/><use xlink:href="#ngt7jnzf5lPuprJ0hidU_pad-11" x="129480" y="-56520"/><use xlink:href="#ngt7jnzf5lPuprJ0hidU_pad-12" x="136260" y="-56520"/><use xlink:href="#ngt7jnzf5lPuprJ0hidU_pad-13" x="137160" y="-64770"/><use xlink:href="#ngt7jnzf5lPuprJ0hidU_pad-12" x="136260" y="-73020"/><use xlink:href="#ngt7jnzf5lPuprJ0hidU_pad-11" x="129480" y="-73020"/><use xlink:href="#ngt7jnzf5lPuprJ0hidU_pad-10" x="126880" y="-64270"/><use xlink:href="#ngt7jnzf5lPuprJ0hidU_pad-10" x="126880" y="-63770"/><use xlink:href="#ngt7jnzf5lPuprJ0hidU_pad-10" x="126880" y="-63270"/><use xlink:href="#ngt7jnzf5lPuprJ0hidU_pad-10" x="126880" y="-62770"/><use xlink:href="#ngt7jnzf5lPuprJ0hidU_pad-10" x="126880" y="-62270"/><use xlink:href="#ngt7jnzf5lPuprJ0hidU_pad-10" x="126880" y="-61770"/><use xlink:href="#ngt7jnzf5lPuprJ0hidU_pad-10" x="126880" y="-65270"/><use xlink:href="#ngt7jnzf5lPuprJ0hidU_pad-10" x="126880" y="-65770"/><use xlink:href="#ngt7jnzf5lPuprJ0hidU_pad-10" x="126880" y="-66270"/><use xlink:href="#ngt7jnzf5lPuprJ0hidU_pad-10" x="126880" y="-66770"/><use xlink:href="#ngt7jnzf5lPuprJ0hidU_pad-10" x="126880" y="-67270"/><use xlink:href="#ngt7jnzf5lPuprJ0hidU_pad-10" x="126880" y="-67770"/><use xlink:href="#ngt7jnzf5lPuprJ0hidU_pad-10" x="126880" y="-68270"/><use xlink:href="#ngt7jnzf5lPuprJ0hidU_pad-10" x="126880" y="-68770"/><use xlink:href="#ngt7jnzf5lPuprJ0hidU_pad-10" x="126880" y="-61270"/><use xlink:href="#ngt7jnzf5lPuprJ0hidU_pad-10" x="126880" y="-60770"/><use xlink:href="#ngt7jnzf5lPuprJ0hidU_pad-10" x="126880" y="-60270"/><use xlink:href="#ngt7jnzf5lPuprJ0hidU_pad-10" x="126880" y="-59770"/><use xlink:href="#ngt7jnzf5lPuprJ0hidU_pad-10" x="126880" y="-59270"/><use xlink:href="#ngt7jnzf5lPuprJ0hidU_pad-14" x="66850" y="-100425"/><use xlink:href="#ngt7jnzf5lPuprJ0hidU_pad-14" x="69390" y="-100425"/><use xlink:href="#ngt7jnzf5lPuprJ0hidU_pad-14" x="71930" y="-100425"/><use xlink:href="#ngt7jnzf5lPuprJ0hidU_pad-14" x="74470" y="-100425"/><use xlink:href="#ngt7jnzf5lPuprJ0hidU_pad-14" x="77010" y="-100425"/><use xlink:href="#ngt7jnzf5lPuprJ0hidU_pad-14" x="79550" y="-100425"/><use xlink:href="#ngt7jnzf5lPuprJ0hidU_pad-14" x="82090" y="-100425"/><use xlink:href="#ngt7jnzf5lPuprJ0hidU_pad-14" x="121285" y="-86700"/><use xlink:href="#ngt7jnzf5lPuprJ0hidU_pad-14" x="123825" y="-86700"/><use xlink:href="#ngt7jnzf5lPuprJ0hidU_pad-14" x="126365" y="-86700"/><use xlink:href="#ngt7jnzf5lPuprJ0hidU_pad-14" x="128905" y="-86700"/><use xlink:href="#ngt7jnzf5lPuprJ0hidU_pad-14" x="131445" y="-86700"/><use xlink:href="#ngt7jnzf5lPuprJ0hidU_pad-14" x="133985" y="-86700"/><use xlink:href="#ngt7jnzf5lPuprJ0hidU_pad-14" x="136525" y="-86700"/><use xlink:href="#ngt7jnzf5lPuprJ0hidU_pad-17" x="92900" y="-133450"/><use xlink:href="#ngt7jnzf5lPuprJ0hidU_pad-17" x="68800" y="-133450"/><use xlink:href="#ngt7jnzf5lPuprJ0hidU_pad-18" x="90600" y="-130750"/><use xlink:href="#ngt7jnzf5lPuprJ0hidU_pad-18" x="90100" y="-130750"/><use xlink:href="#ngt7jnzf5lPuprJ0hidU_pad-18" x="89600" y="-130750"/><use xlink:href="#ngt7jnzf5lPuprJ0hidU_pad-18" x="89100" y="-130750"/><use xlink:href="#ngt7jnzf5lPuprJ0hidU_pad-18" x="88600" y="-130750"/><use xlink:href="#ngt7jnzf5lPuprJ0hidU_pad-18" x="88100" y="-130750"/><use xlink:href="#ngt7jnzf5lPuprJ0hidU_pad-18" x="87600" y="-130750"/><use xlink:href="#ngt7jnzf5lPuprJ0hidU_pad-18" x="87100" y="-130750"/><use xlink:href="#ngt7jnzf5lPuprJ0hidU_pad-18" x="86600" y="-130750"/><use xlink:href="#ngt7jnzf5lPuprJ0hidU_pad-18" x="86100" y="-130750"/><use xlink:href="#ngt7jnzf5lPuprJ0hidU_pad-18" x="85600" y="-130750"/><use xlink:href="#ngt7jnzf5lPuprJ0hidU_pad-18" x="85100" y="-130750"/><use xlink:href="#ngt7jnzf5lPuprJ0hidU_pad-18" x="84600" y="-130750"/><use xlink:href="#ngt7jnzf5lPuprJ0hidU_pad-18" x="84100" y="-130750"/><use xlink:href="#ngt7jnzf5lPuprJ0hidU_pad-18" x="83600" y="-130750"/><use xlink:href="#ngt7jnzf5lPuprJ0hidU_pad-18" x="83100" y="-130750"/><use xlink:href="#ngt7jnzf5lPuprJ0hidU_pad-18" x="82600" y="-130750"/><use xlink:href="#ngt7jnzf5lPuprJ0hidU_pad-18" x="82100" y="-130750"/><use xlink:href="#ngt7jnzf5lPuprJ0hidU_pad-18" x="81600" y="-130750"/><use xlink:href="#ngt7jnzf5lPuprJ0hidU_pad-18" x="81100" y="-130750"/><use xlink:href="#ngt7jnzf5lPuprJ0hidU_pad-18" x="80600" y="-130750"/><use xlink:href="#ngt7jnzf5lPuprJ0hidU_pad-18" x="80100" y="-130750"/><use xlink:href="#ngt7jnzf5lPuprJ0hidU_pad-18" x="79600" y="-130750"/><use xlink:href="#ngt7jnzf5lPuprJ0hidU_pad-18" x="79100" y="-130750"/><use xlink:href="#ngt7jnzf5lPuprJ0hidU_pad-18" x="78600" y="-130750"/><use xlink:href="#ngt7jnzf5lPuprJ0hidU_pad-18" x="78100" y="-130750"/><use xlink:href="#ngt7jnzf5lPuprJ0hidU_pad-18" x="77600" y="-130750"/><use xlink:href="#ngt7jnzf5lPuprJ0hidU_pad-18" x="77100" y="-130750"/><use xlink:href="#ngt7jnzf5lPuprJ0hidU_pad-18" x="76600" y="-130750"/><use xlink:href="#ngt7jnzf5lPuprJ0hidU_pad-18" x="76100" y="-130750"/><use xlink:href="#ngt7jnzf5lPuprJ0hidU_pad-18" x="75600" y="-130750"/><use xlink:href="#ngt7jnzf5lPuprJ0hidU_pad-18" x="75100" y="-130750"/><use xlink:href="#ngt7jnzf5lPuprJ0hidU_pad-18" x="74600" y="-130750"/><use xlink:href="#ngt7jnzf5lPuprJ0hidU_pad-18" x="74100" y="-130750"/><use xlink:href="#ngt7jnzf5lPuprJ0hidU_pad-18" x="73600" y="-130750"/><use xlink:href="#ngt7jnzf5lPuprJ0hidU_pad-18" x="73100" y="-130750"/><use xlink:href="#ngt7jnzf5lPuprJ0hidU_pad-18" x="72600" y="-130750"/><use xlink:href="#ngt7jnzf5lPuprJ0hidU_pad-18" x="72100" y="-130750"/><use xlink:href="#ngt7jnzf5lPuprJ0hidU_pad-18" x="71600" y="-130750"/><use xlink:href="#ngt7jnzf5lPuprJ0hidU_pad-18" x="71100" y="-130750"/><use xlink:href="#ngt7jnzf5lPuprJ0hidU_pad-16" x="113700" y="-62640"/><use xlink:href="#ngt7jnzf5lPuprJ0hidU_pad-16" x="113700" y="-63140"/><use xlink:href="#ngt7jnzf5lPuprJ0hidU_pad-16" x="113700" y="-63640"/><use xlink:href="#ngt7jnzf5lPuprJ0hidU_pad-16" x="113700" y="-64140"/><use xlink:href="#ngt7jnzf5lPuprJ0hidU_pad-16" x="113700" y="-64640"/><use xlink:href="#ngt7jnzf5lPuprJ0hidU_pad-16" x="113700" y="-65140"/><use xlink:href="#ngt7jnzf5lPuprJ0hidU_pad-16" x="113700" y="-65640"/><use xlink:href="#ngt7jnzf5lPuprJ0hidU_pad-16" x="113700" y="-66140"/><use xlink:href="#ngt7jnzf5lPuprJ0hidU_pad-16" x="113700" y="-66640"/><use xlink:href="#ngt7jnzf5lPuprJ0hidU_pad-16" x="113700" y="-67140"/><use xlink:href="#ngt7jnzf5lPuprJ0hidU_pad-16" x="113700" y="-67640"/><use xlink:href="#ngt7jnzf5lPuprJ0hidU_pad-16" x="113700" y="-68140"/><use xlink:href="#ngt7jnzf5lPuprJ0hidU_pad-16" x="113700" y="-68640"/><use xlink:href="#ngt7jnzf5lPuprJ0hidU_pad-16" x="113700" y="-69140"/><use xlink:href="#ngt7jnzf5lPuprJ0hidU_pad-16" x="113700" y="-69640"/><use xlink:href="#ngt7jnzf5lPuprJ0hidU_pad-16" x="113700" y="-70140"/><use xlink:href="#ngt7jnzf5lPuprJ0hidU_pad-16" x="113700" y="-70640"/><use xlink:href="#ngt7jnzf5lPuprJ0hidU_pad-16" x="113700" y="-71140"/><use xlink:href="#ngt7jnzf5lPuprJ0hidU_pad-16" x="113700" y="-71640"/><use xlink:href="#ngt7jnzf5lPuprJ0hidU_pad-16" x="113700" y="-72140"/><use xlink:href="#ngt7jnzf5lPuprJ0hidU_pad-16" x="113700" y="-72640"/><use xlink:href="#ngt7jnzf5lPuprJ0hidU_pad-16" x="113700" y="-73140"/><use xlink:href="#ngt7jnzf5lPuprJ0hidU_pad-16" x="113700" y="-73640"/><use xlink:href="#ngt7jnzf5lPuprJ0hidU_pad-16" x="113700" y="-74140"/><use xlink:href="#ngt7jnzf5lPuprJ0hidU_pad-16" x="113700" y="-74640"/><use xlink:href="#ngt7jnzf5lPuprJ0hidU_pad-16" x="113700" y="-75140"/><use xlink:href="#ngt7jnzf5lPuprJ0hidU_pad-16" x="113700" y="-75640"/><use xlink:href="#ngt7jnzf5lPuprJ0hidU_pad-16" x="113700" y="-76140"/><use xlink:href="#ngt7jnzf5lPuprJ0hidU_pad-16" x="113700" y="-76640"/><use xlink:href="#ngt7jnzf5lPuprJ0hidU_pad-16" x="113700" y="-77140"/><use xlink:href="#ngt7jnzf5lPuprJ0hidU_pad-16" x="113700" y="-77640"/><use xlink:href="#ngt7jnzf5lPuprJ0hidU_pad-16" x="113700" y="-78140"/><use xlink:href="#ngt7jnzf5lPuprJ0hidU_pad-16" x="113700" y="-78640"/><use xlink:href="#ngt7jnzf5lPuprJ0hidU_pad-16" x="113700" y="-79140"/><use xlink:href="#ngt7jnzf5lPuprJ0hidU_pad-16" x="113700" y="-79640"/><use xlink:href="#ngt7jnzf5lPuprJ0hidU_pad-16" x="113700" y="-80140"/><use xlink:href="#ngt7jnzf5lPuprJ0hidU_pad-16" x="113700" y="-80640"/><use xlink:href="#ngt7jnzf5lPuprJ0hidU_pad-16" x="113700" y="-81140"/><use xlink:href="#ngt7jnzf5lPuprJ0hidU_pad-16" x="113700" y="-81640"/><use xlink:href="#ngt7jnzf5lPuprJ0hidU_pad-16" x="113700" y="-82140"/><use xlink:href="#ngt7jnzf5lPuprJ0hidU_pad-15" x="111000" y="-60340"/><use xlink:href="#ngt7jnzf5lPuprJ0hidU_pad-15" x="111000" y="-84440"/></g></svg>