M48
;DRILL file {KiCad 4.0.7} date 07/29/18 14:43:58
;FORMAT={3:3/ absolute / metric / suppress leading zeros}
FMAT,2
METRIC,TZ
T1C0.330
T2C1.300
T3C1.400
T4C1.700
T5C2.200
%
G90
G05
M71
T1
X129476Y-87757
X131001Y-87821
X132271Y-83312
X132525Y-87821
X133477Y-87821
X135001Y-87821
X136525Y-87821
X137986Y-87821
X145669Y-73469
X147193Y-73469
X148717Y-73469
X150177Y-73469
X151257Y-73469
X153543Y-73469
X155702Y-73469
X156210Y-76264
X156655Y-73469
X157544Y-73469
X158877Y-76327
X158940Y-73469
X159893Y-76327
X159957Y-73469
T2
X176530Y-84060
X176530Y-89060
X176530Y-94060
X176530Y-99060
T3
X133000Y-96000
T4
X124750Y-95100
X141250Y-95100
T5
X124750Y-88320
X141250Y-88320
T0
M30
