G04 #@! TF.FileFunction,Soldermask,Top*
%FSLAX46Y46*%
G04 Gerber Fmt 4.6, Leading zero omitted, Abs format (unit mm)*
G04 Created by KiCad (PCBNEW 4.0.7) date 07/29/18 14:43:16*
%MOMM*%
%LPD*%
G01*
G04 APERTURE LIST*
%ADD10C,0.100000*%
%ADD11C,2.601600*%
%ADD12R,2.601600X2.601600*%
%ADD13R,0.381600X2.501600*%
%ADD14C,2.901600*%
%ADD15C,2.401600*%
%ADD16C,1.501600*%
%ADD17R,0.351600X1.001600*%
%ADD18R,0.651600X1.001600*%
%ADD19R,1.501600X2.001600*%
G04 APERTURE END LIST*
D10*
D11*
X176530000Y-84060000D03*
X176530000Y-89060000D03*
D12*
X176530000Y-99060000D03*
D11*
X176530000Y-94060000D03*
D13*
X138500000Y-85720000D03*
X138000000Y-85720000D03*
X137500000Y-85720000D03*
X137000000Y-85720000D03*
X136500000Y-85720000D03*
X129000000Y-85720000D03*
X129500000Y-85720000D03*
X130000000Y-85720000D03*
X130500000Y-85720000D03*
X131000000Y-85720000D03*
X131500000Y-85720000D03*
X132000000Y-85720000D03*
X132500000Y-85720000D03*
X136000000Y-85720000D03*
X135500000Y-85720000D03*
X135000000Y-85720000D03*
X134500000Y-85720000D03*
X134000000Y-85720000D03*
X133500000Y-85720000D03*
D14*
X124750000Y-88320000D03*
D15*
X124750000Y-95100000D03*
D16*
X133000000Y-96000000D03*
D15*
X141250000Y-95100000D03*
D14*
X141250000Y-88320000D03*
D13*
X133000000Y-85720000D03*
D17*
X145190000Y-74930000D03*
X145690000Y-74930000D03*
X146190000Y-74930000D03*
X146690000Y-74930000D03*
X147190000Y-74930000D03*
X147690000Y-74930000D03*
X148190000Y-74930000D03*
X148690000Y-74930000D03*
X149190000Y-74930000D03*
X149690000Y-74930000D03*
X150190000Y-74930000D03*
X150690000Y-74930000D03*
X151190000Y-74930000D03*
X151690000Y-74930000D03*
X152190000Y-74930000D03*
X152690000Y-74930000D03*
X153190000Y-74930000D03*
X153690000Y-74930000D03*
X154190000Y-74930000D03*
X154690000Y-74930000D03*
X155190000Y-74930000D03*
X155690000Y-74930000D03*
X156190000Y-74930000D03*
X156690000Y-74930000D03*
X157190000Y-74930000D03*
X157690000Y-74930000D03*
X158190000Y-74930000D03*
X158690000Y-74930000D03*
X159190000Y-74930000D03*
X159690000Y-74930000D03*
X160190000Y-74930000D03*
X160690000Y-74930000D03*
X161190000Y-74930000D03*
X161690000Y-74930000D03*
X162190000Y-74930000D03*
X162690000Y-74930000D03*
X163190000Y-74930000D03*
X163690000Y-74930000D03*
X164190000Y-74930000D03*
X164690000Y-74930000D03*
D18*
X144290000Y-74930000D03*
X165590000Y-74930000D03*
D19*
X142090000Y-76750000D03*
X167790000Y-76750000D03*
M02*
