M48
;DRILL file {KiCad 4.0.7} date 09/03/18 02:09:14
;FORMAT={3:3/ absolute / metric / suppress leading zeros}
FMAT,2
METRIC,TZ
T1C0.330
T2C0.700
T3C1.020
T4C1.400
%
G90
G05
M71
T1
X120900Y-107100
X122200Y-99000
X122300Y-100500
X122400Y-107100
X123400Y-100600
X123800Y-102600
X123900Y-107100
X124900Y-107100
X126400Y-107100
X127200Y-96200
X127900Y-107100
X128700Y-96200
X129400Y-107100
X130200Y-96200
X130700Y-100700
X131500Y-99800
X131700Y-96200
X134700Y-99200
X136300Y-104900
T3
X150500Y-102200
X150500Y-104740
X150500Y-107280
X150500Y-109820
X150500Y-112360
X150500Y-114900
T4
X124400Y-115100
T2
X116150Y-106670G85X116150Y-108170
G05
X116150Y-113650G85X116150Y-114750
G05
X132650Y-106670G85X132650Y-108170
G05
X132650Y-113650G85X132650Y-114750
G05
T0
M30
