G04 #@! TF.FileFunction,Copper,L1,Top,Signal*
%FSLAX46Y46*%
G04 Gerber Fmt 4.6, Leading zero omitted, Abs format (unit mm)*
G04 Created by KiCad (PCBNEW 4.0.7) date 09/03/18 02:09:11*
%MOMM*%
%LPD*%
G01*
G04 APERTURE LIST*
%ADD10C,0.100000*%
%ADD11R,0.280000X2.400000*%
%ADD12O,1.300000X2.800000*%
%ADD13O,1.300000X2.400000*%
%ADD14C,1.400000*%
%ADD15C,1.602000*%
%ADD16R,2.000000X1.300000*%
%ADD17R,0.300000X1.000000*%
%ADD18C,0.685800*%
%ADD19C,0.152400*%
G04 APERTURE END LIST*
D10*
D11*
X129900000Y-104820000D03*
X129400000Y-104820000D03*
X128900000Y-104820000D03*
X128400000Y-104820000D03*
X127900000Y-104820000D03*
X120400000Y-104820000D03*
X120900000Y-104820000D03*
X121400000Y-104820000D03*
X121900000Y-104820000D03*
X122400000Y-104820000D03*
X122900000Y-104820000D03*
X123400000Y-104820000D03*
X123900000Y-104820000D03*
X127400000Y-104820000D03*
X126900000Y-104820000D03*
X126400000Y-104820000D03*
X125900000Y-104820000D03*
X125400000Y-104820000D03*
X124900000Y-104820000D03*
D12*
X116150000Y-107420000D03*
D13*
X116150000Y-114200000D03*
D14*
X124400000Y-115100000D03*
D13*
X132650000Y-114200000D03*
D12*
X132650000Y-107420000D03*
D11*
X124400000Y-104820000D03*
D15*
X150500000Y-102200000D03*
X150500000Y-104740000D03*
X150500000Y-107280000D03*
X150500000Y-109820000D03*
X150500000Y-112360000D03*
X150500000Y-114900000D03*
D16*
X124385000Y-94900000D03*
D17*
X141185000Y-97600000D03*
X140685000Y-97600000D03*
X140185000Y-97600000D03*
X139685000Y-97600000D03*
X139185000Y-97600000D03*
X138685000Y-97600000D03*
X138185000Y-97600000D03*
X137685000Y-97600000D03*
X137185000Y-97600000D03*
X136685000Y-97600000D03*
X136185000Y-97600000D03*
X135685000Y-97600000D03*
X135185000Y-97600000D03*
X134685000Y-97600000D03*
X134185000Y-97600000D03*
X133685000Y-97600000D03*
X133185000Y-97600000D03*
X132685000Y-97600000D03*
X132185000Y-97600000D03*
X131685000Y-97600000D03*
X131185000Y-97600000D03*
X130685000Y-97600000D03*
X130185000Y-97600000D03*
X129685000Y-97600000D03*
X129185000Y-97600000D03*
X128685000Y-97600000D03*
X128185000Y-97600000D03*
X127685000Y-97600000D03*
X127185000Y-97600000D03*
X126685000Y-97600000D03*
D16*
X143485000Y-94900000D03*
D18*
X131700000Y-96200000D03*
X130200000Y-96200000D03*
X128700000Y-96200000D03*
X127200000Y-96200000D03*
X120900000Y-107100000D03*
X122400000Y-107100000D03*
X123800000Y-102600000D03*
X123900000Y-107100000D03*
X124900000Y-107100000D03*
X126400000Y-107100000D03*
X127900000Y-107100000D03*
X129400000Y-107100000D03*
X134700000Y-99200000D03*
X122200000Y-99000000D03*
X131500000Y-99800000D03*
X122300000Y-100500000D03*
X130700000Y-100700000D03*
X123400000Y-100600000D03*
X136300000Y-104900000D03*
D19*
X129900000Y-104820000D02*
X129900000Y-101100000D01*
X129685000Y-100885000D02*
X129685000Y-97600000D01*
X129900000Y-101100000D02*
X129685000Y-100885000D01*
X131685000Y-97600000D02*
X131685000Y-96215000D01*
X131685000Y-96215000D02*
X131700000Y-96200000D01*
X130185000Y-97600000D02*
X130185000Y-96215000D01*
X130185000Y-96215000D02*
X130200000Y-96200000D01*
X128685000Y-97600000D02*
X128685000Y-96215000D01*
X128685000Y-96215000D02*
X128700000Y-96200000D01*
X127185000Y-97600000D02*
X127185000Y-96215000D01*
X127185000Y-96215000D02*
X127200000Y-96200000D01*
X120900000Y-104820000D02*
X120900000Y-107100000D01*
X122400000Y-104820000D02*
X122400000Y-107100000D01*
X123400000Y-104820000D02*
X123400000Y-103000000D01*
X123400000Y-103000000D02*
X123800000Y-102600000D01*
X123900000Y-104820000D02*
X123900000Y-107100000D01*
X124900000Y-104820000D02*
X124900000Y-107100000D01*
X126400000Y-104820000D02*
X126400000Y-107100000D01*
X127900000Y-104820000D02*
X127900000Y-107100000D01*
X129400000Y-104820000D02*
X129400000Y-107100000D01*
X128900000Y-104820000D02*
X128900000Y-101100000D01*
X129185000Y-100815000D02*
X129185000Y-97600000D01*
X128900000Y-101100000D02*
X129185000Y-100815000D01*
X128400000Y-104820000D02*
X128400000Y-101100000D01*
X128185000Y-100885000D02*
X128185000Y-97600000D01*
X128400000Y-101100000D02*
X128185000Y-100885000D01*
X121400000Y-104820000D02*
X121400000Y-99800000D01*
X134685000Y-99185000D02*
X134685000Y-97600000D01*
X134700000Y-99200000D02*
X134685000Y-99185000D01*
X121400000Y-99800000D02*
X122200000Y-99000000D01*
X121900000Y-104820000D02*
X121900000Y-100900000D01*
X131185000Y-99485000D02*
X131185000Y-97600000D01*
X131500000Y-99800000D02*
X131185000Y-99485000D01*
X121900000Y-100900000D02*
X122300000Y-100500000D01*
X122900000Y-104820000D02*
X122900000Y-101100000D01*
X130685000Y-100685000D02*
X130685000Y-97600000D01*
X130700000Y-100700000D02*
X130685000Y-100685000D01*
X122900000Y-101100000D02*
X123400000Y-100600000D01*
X127400000Y-104820000D02*
X127400000Y-101100000D01*
X127685000Y-100815000D02*
X127685000Y-97600000D01*
X127400000Y-101100000D02*
X127685000Y-100815000D01*
X136685000Y-97600000D02*
X136685000Y-93015000D01*
X136685000Y-93015000D02*
X137400000Y-92300000D01*
X136185000Y-97600000D02*
X136185000Y-93015000D01*
X136185000Y-93015000D02*
X136900000Y-92300000D01*
X135685000Y-97600000D02*
X135685000Y-93015000D01*
X135685000Y-93015000D02*
X136400000Y-92300000D01*
X135185000Y-97600000D02*
X135185000Y-92915000D01*
X135185000Y-92915000D02*
X135800000Y-92300000D01*
X134185000Y-97600000D02*
X134185000Y-92915000D01*
X134185000Y-92915000D02*
X134800000Y-92300000D01*
X133685000Y-97600000D02*
X133685000Y-92815000D01*
X147000000Y-102200000D02*
X150500000Y-102200000D01*
X146500000Y-101700000D02*
X147000000Y-102200000D01*
X146500000Y-92800000D02*
X146500000Y-101700000D01*
X146000000Y-92300000D02*
X146500000Y-92800000D01*
X134200000Y-92300000D02*
X134800000Y-92300000D01*
X134800000Y-92300000D02*
X135800000Y-92300000D01*
X135800000Y-92300000D02*
X136400000Y-92300000D01*
X136400000Y-92300000D02*
X136900000Y-92300000D01*
X136900000Y-92300000D02*
X137400000Y-92300000D01*
X137400000Y-92300000D02*
X146000000Y-92300000D01*
X133685000Y-92815000D02*
X134200000Y-92300000D01*
X132685000Y-97600000D02*
X132685000Y-104485000D01*
X132685000Y-104485000D02*
X133100000Y-104900000D01*
X132185000Y-97600000D02*
X132185000Y-104485000D01*
X132600000Y-104900000D02*
X133100000Y-104900000D01*
X133100000Y-104900000D02*
X136300000Y-104900000D01*
X132185000Y-104485000D02*
X132600000Y-104900000D01*
X137185000Y-97600000D02*
X137185000Y-93415000D01*
X146480000Y-107280000D02*
X150500000Y-107280000D01*
X146000000Y-106800000D02*
X146480000Y-107280000D01*
X146000000Y-93200000D02*
X146000000Y-106800000D01*
X145600000Y-92800000D02*
X146000000Y-93200000D01*
X137800000Y-92800000D02*
X145600000Y-92800000D01*
X137185000Y-93415000D02*
X137800000Y-92800000D01*
X137685000Y-97600000D02*
X137685000Y-93715000D01*
X145920000Y-109820000D02*
X150500000Y-109820000D01*
X145400000Y-109300000D02*
X145920000Y-109820000D01*
X145400000Y-93700000D02*
X145400000Y-109300000D01*
X145100000Y-93400000D02*
X145400000Y-93700000D01*
X138000000Y-93400000D02*
X145100000Y-93400000D01*
X137685000Y-93715000D02*
X138000000Y-93400000D01*
X140685000Y-97600000D02*
X140685000Y-99885000D01*
X140685000Y-99885000D02*
X141300000Y-100500000D01*
X140185000Y-97600000D02*
X140185000Y-99985000D01*
X140185000Y-99985000D02*
X140700000Y-100500000D01*
X139685000Y-97600000D02*
X139685000Y-99985000D01*
X139685000Y-99985000D02*
X140200000Y-100500000D01*
X139185000Y-97600000D02*
X139185000Y-99985000D01*
X143660000Y-112360000D02*
X150500000Y-112360000D01*
X143000000Y-111700000D02*
X143660000Y-112360000D01*
X143000000Y-101200000D02*
X143000000Y-111700000D01*
X142300000Y-100500000D02*
X143000000Y-101200000D01*
X139700000Y-100500000D02*
X140200000Y-100500000D01*
X140200000Y-100500000D02*
X140700000Y-100500000D01*
X140700000Y-100500000D02*
X141300000Y-100500000D01*
X141300000Y-100500000D02*
X142300000Y-100500000D01*
X139185000Y-99985000D02*
X139700000Y-100500000D01*
X133185000Y-97600000D02*
X133185000Y-100785000D01*
X142900000Y-114900000D02*
X150500000Y-114900000D01*
X142400000Y-114400000D02*
X142900000Y-114900000D01*
X142400000Y-101900000D02*
X142400000Y-114400000D01*
X141800000Y-101300000D02*
X142400000Y-101900000D01*
X133700000Y-101300000D02*
X141800000Y-101300000D01*
X133185000Y-100785000D02*
X133700000Y-101300000D01*
M02*
